<svg xmlns="http://www.w3.org/2000/svg" width="546.7" height="282.8" viewBox="0 0 546.7 282.8">
  <g id="Group_1580" data-name="Group 1580" transform="translate(-10539 1575)">
    <g id="Group_1579" data-name="Group 1579" transform="translate(-1079.5 157.7)">
      <path id="Path_15054" data-name="Path 15054" d="M474.1,705.2l13.4.1,16.4,60-7.4,21.6Zm117,.3,13.3.2,20.5,62-6.2,21.2Zm111.8.2,13.3-.1L665,863.5l-13.4.3ZM563.8,789.3l-25.5,75-13.1-.5,31.9-93.5Z" transform="translate(11449 -2361)" fill="#85172f"/>
      <path id="Path_15055" data-name="Path 15055" d="M405.3,838.3H391.6V758.7h13.7Z" transform="translate(11449 -2361)" fill="#85172f"/>
      <path id="Path_15056" data-name="Path 15056" d="M219.2,628.3l13.6.2.6,78.6-13.5,20.3Zm142.7,0,12,.1L296.1,739.3l80.6,169.9H363.8L283.6,740.1ZM248,804.2,232.8,825l.5,84.7-13.7-.1-.4-82.1,24.4-33.3Z" transform="translate(11449 -2361)" fill="#85172f"/>
      <path id="Path_15057" data-name="Path 15057" d="M422.8,704.9l43.3.4,29.5,107.8L533,704.9l49.9.8,36.2,109.4L651,705.7l43.7-.1L643.5,863.5l-44.8,1.2L557,746.6,516.9,864.3l-45.3-1.6Z" transform="translate(11449 -2361)" fill="#85172f"/>
      <path id="Path_15058" data-name="Path 15058" d="M321.3,732.8H422l-.4,18.1H383.8v87.4h-24l-.8-87H321.7Z" transform="translate(11449 -2361)" fill="#85172f"/>
      <path id="Path_15059" data-name="Path 15059" d="M169.5,910.6,171,629.4l40.4.5,1,124.2,83.2-124.7,56.8.4-77.7,111,80.6,169.8h-52L245.2,780.3l-33.8,46.1.5,84.7Z" transform="translate(11449 -2361)" fill="#85172f"/>
      <path id="Path_15060" data-name="Path 15060" d="M489.9,904.6v-3.7h-7.3v-4.1h11.7v10l-.2.2a18.066,18.066,0,0,1-5.2,3,14.361,14.361,0,0,1-5.4,1,14.609,14.609,0,0,1-6.9-1.6,11.126,11.126,0,0,1-4.8-4.8,14.489,14.489,0,0,1-1.6-6.8,16.692,16.692,0,0,1,1.6-7,10.408,10.408,0,0,1,4.6-4.9,13.383,13.383,0,0,1,6.8-1.6,12.783,12.783,0,0,1,5.1.9,9.257,9.257,0,0,1,3.6,2.6,10.648,10.648,0,0,1,2,4.3l.1.5-4,1.1-.2-.5a8.979,8.979,0,0,0-1.3-2.8,5.6,5.6,0,0,0-2.1-1.6,8.662,8.662,0,0,0-3.2-.6,8.887,8.887,0,0,0-3.6.7,5.982,5.982,0,0,0-2.5,1.6,7.9,7.9,0,0,0-1.4,2.3,11.1,11.1,0,0,0-.9,4.8,11.769,11.769,0,0,0,1,5.2,6.658,6.658,0,0,0,3.1,3.1,9.472,9.472,0,0,0,4.4,1,10.876,10.876,0,0,0,3.9-.8,8.054,8.054,0,0,0,2.7-1.5Zm40.8-5.6a4.346,4.346,0,0,0,.7.6,15.39,15.39,0,0,1,2.8,3.4l4.8,7.6h-5.4l-3.5-5.4a40.472,40.472,0,0,0-2.3-3.4,7.106,7.106,0,0,0-1.5-1.5,3.789,3.789,0,0,0-1.3-.6,9.7,9.7,0,0,0-1.7-.1H520v11h-4.4V884.7h11.6a15.54,15.54,0,0,1,5.2.7,5.871,5.871,0,0,1,3,2.6,7.113,7.113,0,0,1,1.1,4,6.783,6.783,0,0,1-1.8,4.9,8.594,8.594,0,0,1-4,2.1ZM520,895.6h6.5a9.35,9.35,0,0,0,3.3-.4,3.707,3.707,0,0,0,1.7-1.3,4.135,4.135,0,0,0,.5-1.9,2.767,2.767,0,0,0-1.1-2.4,5.089,5.089,0,0,0-3.6-1H520Zm37.2,2.4c0-3.7.8-7.3,3.4-10.1a11.985,11.985,0,0,1,9-3.6A11.815,11.815,0,0,1,576,886a10.98,10.98,0,0,1,4.5,4.8,16.161,16.161,0,0,1,1.5,6.9,15.6,15.6,0,0,1-1.6,7,11.566,11.566,0,0,1-4.6,4.7,12.2,12.2,0,0,1-6.2,1.6,11.73,11.73,0,0,1-6.6-1.8,11.963,11.963,0,0,1-4.4-4.8,15.69,15.69,0,0,1-1.4-6.4Zm4.5,0a9.691,9.691,0,0,0,2.2,6.7,7.413,7.413,0,0,0,5.6,2.4,7.227,7.227,0,0,0,5.7-2.5c1.7-1.8,2.2-4.5,2.2-6.9a12.479,12.479,0,0,0-.9-5.1,7.2,7.2,0,0,0-2.8-3.2,7.537,7.537,0,0,0-4.1-1.2,7.865,7.865,0,0,0-5.6,2.3c-1.9,1.8-2.3,5-2.3,7.5Zm53.9-13.3h3.5v14a18.469,18.469,0,0,1-.7,5.8,7.169,7.169,0,0,1-2.6,3.7,8.291,8.291,0,0,1-4.8,1.3,8.389,8.389,0,0,1-4.8-1.2,6.434,6.434,0,0,1-2.7-3.5,20.431,20.431,0,0,1-.8-6.1v-14h3.5v14a15.352,15.352,0,0,0,.5,4.3,3.667,3.667,0,0,0,1.4,2,5.571,5.571,0,0,0,6.4-.7c1-1.2,1.1-4,1.1-5.6Zm34.1,15.8v10.1h-4.5V884.7h9.9a24.846,24.846,0,0,1,3.9.2,7.887,7.887,0,0,1,3.3,1.3,7.545,7.545,0,0,1,2.1,2.6,7.682,7.682,0,0,1,.9,3.6,8.415,8.415,0,0,1-2.2,5.8c-1.8,2-5.1,2.3-7.7,2.3Zm0-4h5.8c1.2,0,3.1-.2,4.1-1.1a3.769,3.769,0,0,0,1.1-2.9,4.647,4.647,0,0,0-.6-2.3,3.6,3.6,0,0,0-1.8-1.2,14.156,14.156,0,0,0-2.9-.2h-5.7Z" transform="translate(11449 -2361)" fill="#85172f" fill-rule="evenodd"/>
    </g>
  </g>
</svg>
