<svg xmlns="http://www.w3.org/2000/svg" width="493.7" height="285.3" viewBox="0 0 493.7 285.3">
  <g id="_2" data-name="2" transform="translate(-202.5 -402.2)">
    <g id="Group_7" data-name="Group 7">
      <g id="Group_8" data-name="Group 8">
        <path id="Path_13626" data-name="Path 13626" d="M430.4,438.6l.5-.1,2.7-.3.5-.1V438l.4-.1a.55.55,0,0,0,.5.3l.7.1-.1-.2a5.5,5.5,0,0,0,1.6.3,2.28,2.28,0,0,0,1.1-.3v-.4l.5.1.5.3a2.957,2.957,0,0,0,1,.2l2.1-.1,2.6.2,2.8-.1,1.1.2h.1l.4-.1.6-.4.8-.1a1.458,1.458,0,0,0,.8-.5l-.2-.5.5-.4.4-.3.2-.4-.9-.1a1.579,1.579,0,0,0-1.5.7.908.908,0,0,1-.7-.3,3.458,3.458,0,0,1-1.2.3h-.4a.52.52,0,0,0-.4.2.6.6,0,0,0-.1.4,2.544,2.544,0,0,1-.7.2,2.3,2.3,0,0,1-.9-.3v-.4h-.3l-1.8.2h-1.5l-2.6-.1a.664.664,0,0,1-.5.4h-.4l-.7-.3-.5-.1-.1-.1a8.17,8.17,0,0,1-1.4.1,2.133,2.133,0,0,1-1.2-.3.67.67,0,0,1-.4-.7l.1-1.3v-1.1a.914.914,0,0,1-.3-.5.536.536,0,0,1,.3-.4v-.6l.1-2.1v-.1l.1-.6-.2-.7-.4-.1a.438.438,0,0,0-.1-.3c0-.1.1-.2.2-.4l.2.1a7.548,7.548,0,0,0,.3-2.3v-3.7a.792.792,0,0,1-.5-.8,1.078,1.078,0,0,1,.2-.7h.3l.1-1.6V418l-.1-1.2.1-1.3-.2-.9.1-.1v-.3l-.3.1-.1-.2.1-.4c.3-.1.4-.4.4-.8l-.1-.7.1-1.5-.1-.1v-.3l-.3.1-.4-.2-.5.1-.3.2-1.2.4-.6.5-.5.2-.4.4.3.5h.3l.3.5.1,1.2.2.4a5.069,5.069,0,0,0-.2,1.3,14.162,14.162,0,0,0,.3,3.1l.4.1.2,1.1a.55.55,0,0,1-.5.3l.1,2.3.5.2-.1.5-.3.8-.1.9-.1,1.6.1.6v1.4l.3.6-.3.4-.1.7-.3.7.5.3-.5.6.1.6-.1,2.1.2.6a2.2,2.2,0,0,0-.5.6,2.508,2.508,0,0,0-.2,1l-.3.3v.3l-.8.3v.3c0,.3.2.4.5.4Z" fill="#663815"/>
        <path id="Path_13627" data-name="Path 13627" d="M447.8,437.9l1.2.1.2-.1.7-.4.9-.1a.31.31,0,0,0,.2-.1l-.2-.5.7-.7a1.316,1.316,0,0,0-1,.6l-.2.2h-.2a1.136,1.136,0,0,1-.8-.3,3.034,3.034,0,0,1-1.1.3h-.4v.5l-.4.1c-.7.3-1,.2-1.9-.1l-.3-.1V437l-1.5.1-1.6.1-2.3-.1a2.092,2.092,0,0,1-.6.4l.3.2a1.948,1.948,0,0,0,.8.1l2-.1,2.7.3Zm-16.6-.4v.4l-.5.1h.1l2.7-.2v-.2l1.2-.2v.1l1,.2a10.4,10.4,0,0,0,1.5.2c.2,0,.4-.1.6-.1v-.7h-.6l-.1-.1c-.5,0-.9.1-1.2.1a3.341,3.341,0,0,1-1.5-.3,1.709,1.709,0,0,1-.6-1.2l.2-1.3-.1-.9a1.493,1.493,0,0,1-.3-.7.908.908,0,0,1,.3-.7l.2-3.1-.1-.3-.3-.1-.1-.2c-.1-.3-.2-.4-.2-.5a1.329,1.329,0,0,1,.3-.7l.3-.5a5.9,5.9,0,0,0,.2-1.4l-.1-3.2v-.2a1.433,1.433,0,0,1-.5-1.1,5.071,5.071,0,0,1,.2-.9l.2-.3h.1l.2-1.2-.1-1.5v-1.3l-.2-.8-.3-.4.2-.9.1-.1c.1,0,.2-.1.2-.4v-2l-.1-.1-.3-.1-.2.1-.3.1-1.1.4-.7.5-.4.2h.2l.4,1,.1,1,.3.6-.1.2a3.748,3.748,0,0,0-.1,1.1,11.413,11.413,0,0,0,.2,2.7l.4.1.3,1.6-.1.1a.781.781,0,0,1-.4.4l.1,1.7.6.3-.2.8-.4.8v.8l-.1,1.6.1.5-.1.6.1.4v.4l.3.7-.3.6-.1.5-.2.5.5.4-.6.9.1.3-.1,2.1.3.9-.3.2a1.2,1.2,0,0,0-.4.4,4.126,4.126,0,0,0-.1.9v.2Zm-.8,1.6h0a.921.921,0,0,1-1-.9l.1-.7.7-.3V437l.3-.2c.1-.4.1-.7.2-1,.1-.2.3-.3.5-.5l-.2-.4.1-2.2-.1-.7.3-.4-.4-.3.5-1,.1-.7.1-.2-.2-.6.1-.5-.1-.3v-.7l-.1-.5.2-2.7.4-.8-.4-.2-.2-3,.4-.1h.1l-.1-.5-.4-.1-.1-.3a15.138,15.138,0,0,1-.3-3.2,4.3,4.3,0,0,1,.2-1.2l-.2-.5-.2-1.2h-.3l-.6-1.1.8-.8.5-.1.7-.6,1.1-.4.3-.1.7-.2.4.2.8-.1v.6l.1.1-.1,1.7.1.7a1.166,1.166,0,0,1-.2.7h.1v1.1H435l.2.8-.1,1.3.1,1.6-.2,2.1h-.4a.31.31,0,0,0-.1.2c0,.2.1.3.2.3l.4.1v4.1a6.568,6.568,0,0,1-.4,2.5v.1l.2.1.1,1-.1,3.6-.2.1a.1.1,0,0,1-.1.1l.1.1.2.1v1.4l-.1,1.3a.438.438,0,0,0,.1.3,2.151,2.151,0,0,0,1,.2,6.642,6.642,0,0,0,1.3-.1h.2l.2.2h.5l.6.3h.2c.1,0,.1-.1.2-.1l.1-.3,2.9.1h1.5l1.8-.2.8.1v.5a1,1,0,0,0,.4.1h.3a.52.52,0,0,1,.2-.4c.1-.2.4-.3.6-.4h.5a3.259,3.259,0,0,0,1-.3l.3-.1.2.3c.1,0,.1.1.2.1a1.95,1.95,0,0,1,1.7-.7l1.8.3-.8,1.1-.6.4.2.5-.2.2a3.778,3.778,0,0,1-1.1.7h-.7l-.6.4-.7.2h-.1l-1.1-.2-2.7.1-2.7-.3-2,.2a2.768,2.768,0,0,1-1.3-.3l-.2-.1v.1l-.3.1a3.534,3.534,0,0,1-2,.2v.1l-1.5-.2a.764.764,0,0,1-.5-.2l-.8.2Z" fill="#663815"/>
        <path id="Path_13628" data-name="Path 13628" d="M455.7,438.7l.7-.2.1-.2h.3a6.064,6.064,0,0,0,2.5-1.7v-.5l-.2-.8.1-1.9-.1-1.2.1-.3-.4-.2.4-1.1v-.4l-.1-.9v-1.2a.664.664,0,0,1-.4-.5.288.288,0,0,1,.1-.2l.2-.9v-1.2l.1-1.2a1.267,1.267,0,0,0-.1-.6l-.3-.5.5-.7v-1.2l-.3-.4a2.078,2.078,0,0,0,.5-1.2l-.1-1.7v-.7l-.3-.1v-.4a3.391,3.391,0,0,0,.5-1.4l-.3-2.1.5-.7.1-.7v-.6a1.268,1.268,0,0,0-.1-.6.367.367,0,0,0-.3-.1l-.6.2-.8.2c-.3.5-.5.8-.6.8l-1.1.1a.918.918,0,0,0-.6.4v1.8l.2.5-.1.7.1,1.8.1.4a1.033,1.033,0,0,1,.4.8l-.2.8.1,1.5-.1.4.3.4a.764.764,0,0,1-.2.5v.5l.1.4v2.8l.3.3a3.456,3.456,0,0,0-.3,1.2,1.483,1.483,0,0,0,.1.7,1.756,1.756,0,0,0,.4.5l-.4.6.1.8-.2,1.5v.9l-.1.7.1-.1.1.1h.5a.914.914,0,0,1,.3.5l-.1.2-.9.1v1.3l-.6,1.9v.4a3.035,3.035,0,0,1-.3,1.1Z" fill="#663815"/>
        <path id="Path_13629" data-name="Path 13629" d="M455.9,438.1h.2l.1-.4.6.1s.5,0,2-1.4v-.3l-.2-.7.1-2-.1-1.2v-.1l-.4-.2.5-1.4-.1-2.2a.867.867,0,0,1-.4-.7c0-.1.1-.2.1-.3l.3-.9v-2.3a.755.755,0,0,0-.1-.4l-.3-.7.5-.9v-.8l-.4-.7.3-.3a1.135,1.135,0,0,0,.3-.8l-.1-1.7v-.3l-.2-.1v-1a3.766,3.766,0,0,0,.4-1.2l-.3-2.2.5-.8.2-1.2-.1-.1-1,.3a1.533,1.533,0,0,1-.9.9l-1,.1c-.1,0-.2,0-.2.1v1.5l.3.5-.2.8.1,2a1.389,1.389,0,0,1,.5,1v.2l-.3.7.2,1.5-.1.2.3.3v.2a1.854,1.854,0,0,1-.2.7v.2l.1.4v2.7l.3.4-.1.3a4.4,4.4,0,0,0-.2,1v.5c.1.1.1.2.3.4l.3.2-.5.8.1.7-.2,2.6h.4l.1.2a1.6,1.6,0,0,1,.3.8l-.1.6-.8.1v1.1l-.6,1.7v.4a3.035,3.035,0,0,1-.3,1.1Zm-.4,1.1-.7-1,.1-.3a3.686,3.686,0,0,0,.4-.9l-.1-.5.6-1.8V434l-.1.1.4-4.6v-.9l.2-.4c-.1-.1-.2-.3-.3-.4a2.484,2.484,0,0,1-.1-.9,5.159,5.159,0,0,1,.2-1.1l-.2-.2v-2.9l-.1-.4v-.8l.1-.1a.088.088,0,0,0,.1-.1l-.4-.5.2-.5-.1-1.4.2-.8a.758.758,0,0,0-.2-.4l-.2-.1-.2-2.5.1-.6-.2-.4.1-2.2a1.325,1.325,0,0,1,.9-.7h1a1.891,1.891,0,0,0,.4-.6l.1-.2,1.7-.5a.749.749,0,0,1,.5.1l.2.1v.2a1.345,1.345,0,0,1,.2.8l-.2,1.5-.4.6.3,2a3.738,3.738,0,0,1-.5,1.5l.3.1v1l.1,1.6a2.01,2.01,0,0,1-.4,1.3l.2.3v1.4l-.4.6.1.3a3.089,3.089,0,0,1,.2.8l-.1,1.2v1.3l-.3,1a.31.31,0,0,1,.2.1l.2.1v2.8l-.2.8.3.2-.1.7.1,1-.1,2,.2,1.5-.2.2c-1.6,1.5-2.3,1.8-2.7,1.8l-.1.1Z" fill="#663815"/>
        <path id="Path_13630" data-name="Path 13630" d="M463.8,436l1.1.7,1.1.1,1.6,1.2.6.1.6.1-.3-.3.6-.1,1.3.8,2.5.1.7.2h2.7a3.194,3.194,0,0,0,1.4-.3,1.338,1.338,0,0,0,.5.1c.1,0,.4-.1.8-.2l1.6-.5,3.3-2.1.4-.2.8-.8.8-.8.3-.6,1.1-1.5c.2-.2.2-.5.2-1.1,0-.3-.1-.5-.5-.7v-.6l.3-.1.8.1a7.389,7.389,0,0,0,.2-1.2l-.2-2-.1-.5-.3-.4q-1.05-1.5-1.5-1.5a.774.774,0,0,1-.3.1h-.1l-1.1-.9a1.346,1.346,0,0,0-1.2-.5h-.8l-1.1-.1-.9.6h-.1q-.45,0-.6-.9l-.6-.1-1-.3h-1l-.6.1v-.2l-1.3-.1-1.4.1-.5-.4-1.7-.8-.8-.7-.7-.1-.4-.1-.2-.5.7-.4a1.951,1.951,0,0,1-.1-.7v-.5l-.5-.3.1-.5.9-.5.8-1.6.5-.5,1-.8,1.4-.7,2-1,1.1-.1h1l1.7.3.6.1,1.1.8.4.2a5.346,5.346,0,0,0,1.6-.6l.6-.5a1.034,1.034,0,0,1,.4-.1v-.4c0-.3-.3-.5-1-.6l-1-.3-.6-.2-.9.1-2.1-.3-.6.3-1.3.1-.5.1-.5.1-2.2.8-1.6.7-1,.7-2.2,1.6-.4.3a1.461,1.461,0,0,1-.4,1.2l-.7.5-.3.6-.2.5-.3.8v.2l.1.7.1.7.4.4-.2.1c.2.6.4,1,.5,1.3.1.1.5.4,1,.8h.3l.7.3v.4a3.552,3.552,0,0,0,.9.4,9.726,9.726,0,0,0,2,.5l1.1.3.5.1.5-.7.6.8,2.8.1.1-.2.5-.2.6.3.4.5,1.8.7,1.5.9.6.1.2.4.4,1.2.1,1.2h-.2l-.7,1.9-.3.3.1.5v.4c0,.4-.2.6-.8.6a3.023,3.023,0,0,1-.3.9l-.7.8-.6.8a1.979,1.979,0,0,1-1,.7l-.9.2-.8.2-.5-.1-.7.4-2.6-.2-.3.1c-.1.2-.2.4-.3.4a5.914,5.914,0,0,1-.8-.5l-2.9-.6-1.4-.6-1.4-.4-.3-.5-.4-.3-.5.1a.588.588,0,0,0-.2-.5,1.538,1.538,0,0,0-.6-.4l-.3-1.5a2.111,2.111,0,0,0-1.3.7c-.2.4-.5.7-.7,1.1a3.739,3.739,0,0,0-.4,1.1c0,.1.3.4.8.7Z" fill="#663815"/>
        <path id="Path_13631" data-name="Path 13631" d="M478.7,411.1l2.6.5,1.2.9a2.8,2.8,0,0,0,1.3-.5l.6-.4c0-.1.1-.1.2-.2a3.929,3.929,0,0,1-.6-.2l-1.6-.4-.8.1-2-.3-.7.3-1.8.1-.3.2Zm-5.1,27.3,2.7.1a2.133,2.133,0,0,0,1.2-.3l.2-.1.2.1h.3a3.718,3.718,0,0,0,.7-.2l1.5-.4,3.2-2.1.4-.2,1.5-1.5.3-.6,1.2-1.5v-.8s0-.1-.2-.3l-.2-.1-.2-1.1.8-.4.6.1v-.7l-.3-2.3-.2-.3a6.268,6.268,0,0,0-1.1-1.3l-.1.1h-.5l-1.2-1.1a1.222,1.222,0,0,0-.9-.3h-.8l-1-.1-.7.5a1,1,0,0,1-.4.1c-.3,0-.8-.1-1-1l-.3-.1-1.1-.2a.349.349,0,0,0-.2-.1l-1.5.3-.1-.4h-.9l-1.6.1-.5-.5-1.8-.8-.7-.6-.6-.1-.7-.3-.5-1,.8-.4v-.7l-.6-.3.3-1.1.9-.5.9-1.6.5-.5,1-.8,3.1-1.7-1.5.5-1.5.8-1,.6-2.3,1.8a2.619,2.619,0,0,1-.6,1.3l-.6.4-.2.5-.3.5-.2.8.1,1.2.8.8-.4.2a6.658,6.658,0,0,0,.3.7c.1,0,.2.2.7.6h.4l1,.4v.5l.6.3c.5.1,1.1.3,1.9.5l1.3.2.7-.8.8,1,2.4.1v-.1l.8-.4.8.5.4.5,1.8.6,1.5.9.8.1.2.8.4,1.1.2,1.9h-.4l-.6,1.7-.2.2.1.7a.991.991,0,0,1-.9,1,2.193,2.193,0,0,1-.3.8l-.8.8-.5.8a2.42,2.42,0,0,1-1.3.8l-.9.3-.9.2-.4-.1-.7.4-2.6-.2a.911.911,0,0,1-.7.5c-.2,0-.3-.1-1-.5l-2.8-.6-1.5-.7-1.5-.3-.3-.7h-.2l-.7.1-.2-.5a.438.438,0,0,0-.1-.3,1.1,1.1,0,0,0-.4-.2l-.2-.1-.2-1.3a2.651,2.651,0,0,0-.6.5,3.114,3.114,0,0,0-.7.9,4.414,4.414,0,0,0-.3.8,5.2,5.2,0,0,1,.5.3l1.1.7,1,.1,1.7,1.2.2.1,1.1-.3,1.5.8,2.3.1Zm2.7,1h-2.9l-.6-.2-2.6-.2-.3-.2-2.6-.4-1.5-1.1-1.2-.2-1.1-.7c-.5-.3-.9-.7-.9-1.1a2.421,2.421,0,0,1,.4-1.3,5.027,5.027,0,0,1,.8-1.2,2.6,2.6,0,0,1,1.6-.9l.4-.1.4,1.8a1.769,1.769,0,0,1,.7.7l.2-.1.7.5.3.4,1.1.3,1.5.7,2.9.6a1.381,1.381,0,0,1,.4.3v-.1l.4-.2.4-.1,2.5.2.8-.5.6.2.6-.1.8-.3a1.234,1.234,0,0,0,.8-.5l.6-.8.7-.8a2.5,2.5,0,0,0,.3-.8l.1-.3h.3a.584.584,0,0,0,.4-.1l-.1-.3-.1-.8.4-.4.8-2.1-.1-.7-.4-1.2-.5-.1-1.5-.9-2-.8-.4-.4-.2-.2-.2.2-.1.2-3.4-.1-.3-.5-.4.4-1.8-.4a19.267,19.267,0,0,1-2-.5,3.7,3.7,0,0,1-1.1-.5l-.2-.1v-.4l-.3-.2v.1l-.3.1-.2-.2a3.689,3.689,0,0,1-1.1-1,4.779,4.779,0,0,1-.6-1.4l-.1-.3-.1-.1-.2-1.9.3-.8.3-.6.3-.7.8-.6a1.292,1.292,0,0,0,.2-.8v-.3l.6-.4,2.2-1.6,1-.7,1.7-.8,2.7-.9,1.9-.2.6-.3,2.2.3h1l.6.2,1,.2c.9.2,1.4.6,1.4,1.1v.5l-.1.3h-.3a.774.774,0,0,1-.3.1l-.5.5a9.5,9.5,0,0,1-1.8.7l-.2.1-.6-.4-1-.7-.5-.1-1.6-.3h-2l-3.3,1.8-.9.7-.4.4-.9,1.7-.7.4.5.3-.1.3c0,.2-.1.3-.1.4a4.213,4.213,0,0,1,.2.5l.1.4-.6.4.9.1.8.7,1.8.8.3.3,1.2-.1,1.6.1.1.2.8-.1h.4l2.1.5v.3a2.033,2.033,0,0,0,.1.5l.9-.6,1.3.1h.7a2.452,2.452,0,0,1,1.6.6l.8.8h.3c.5,0,.9.3,1.9,1.6l.4.6.1.5.2,2a9.327,9.327,0,0,1-.2,1.4l-.1.4-.9-.1a1.394,1.394,0,0,1,.4.9,4.14,4.14,0,0,1-.2,1.4l-1.2,1.5-.3.5-.9,1-.9.8-.4.2-3.3,2.2-1.6.5a3.5,3.5,0,0,1-1,.2.755.755,0,0,1-.4-.1,4.011,4.011,0,0,1-1.5.3Z" fill="#663815"/>
        <path id="Path_13632" data-name="Path 13632" d="M518.9,411.5l-.1-.5-.3-.1a8.187,8.187,0,0,1-3.8.9,5.756,5.756,0,0,1-1-.2l-1,.2h-1.5l-.9.3-.7.1-.4.2-.7-.1a1.234,1.234,0,0,0-.8-.4,5.756,5.756,0,0,0-1.5-.1l-.4-.1-.1.2-.4-.1-1.1-.5-2.3-.1-1.3-.3-1.4.1-1.9-.6-.9-.1a1.626,1.626,0,0,1-.9.4c-.3,0-.5-.2-.7-.6h-.4a4.386,4.386,0,0,0-1.9.3l-1.6,1.2a2.651,2.651,0,0,0-.5.6,5.528,5.528,0,0,0-.1.9h.6l.6.1h.1a1.209,1.209,0,0,0,.9-.6l.5.1,3-.2,2.8.3,1.9-.1.9.3.4.1h.5l1.1.2v.3a.51.51,0,0,1-.4.5l-.6,1.3v.5l.3,1.5-.1.6.3,1-.1.6a12.577,12.577,0,0,0,.5,1.6l.2.5a3.347,3.347,0,0,0-.4,1.4l.1,1.2.1,1.7-.2,1.3.5,1.9-.4.5v.5l-.2,1.7-.1,2.4-.2,1.6.2,1.1-.2.9v.4l.2.5a.367.367,0,0,1,.3-.1c.1,0,.2.1.3.2l.3-.3h.3l.4-.1,1-.9.4-.2.3-.2-.3-3.5a.928.928,0,0,1-.7-.9c0-.3.2-.6.8-.9l-.1-.8v-.5l.1-.6-.2-.7.1-.6-.2-.5a.864.864,0,0,0,.3-.6l-.1-.9.1-1-.5-.5c0-.3,0-.5.1-.6,0-.1.2-.2.4-.3l-.1-.3c-.3-.1-.5-.1-.5-.2-.1,0-.2-.1-.4-.3.6-.6.8-1,.8-1.4v-.9l.1-1.5c0-.2-.3-.3-.7-.4a.845.845,0,0,1,.2-.6c.1-.1.3-.1.6-.1l-.2-.5.1-.6v-.8l.2-1v-.1l-.1-.7v-.5l.2-1h.3l.7.1,1.8-.1,1.9.2,2.8.1,1.2.2a.749.749,0,0,0,.5-.1l.8-.5,1.7-.6.5-.9Z" fill="#663815"/>
        <path id="Path_13633" data-name="Path 13633" d="M503.4,438.2a.288.288,0,0,1,.2.1l.1-.2h.8l.9-.8.5-.3-.2-3a1.244,1.244,0,0,1-.8-1.2,1.347,1.347,0,0,1,.8-1.2l-.1-1,.1-.6-.2-.7.1-.5-.3-.7.2-.2c.2-.2.2-.3.2-.3l-.1-.9.1-.8-.5-.6v-.1a1.549,1.549,0,0,1,.2-.8v-.1a.088.088,0,0,1-.1-.1c-.1,0-.3-.2-.5-.5l-.2-.3.3-.3c.6-.6.7-.9.7-1l-.1-.9.1-1.3c0-.1-.2-.1-.3-.1l-.4-.1v-.4a1.327,1.327,0,0,1,.3-1c.1,0,.2-.1.4-.1l-.1-.1.1-.7v-.7l.2-1.1-.1-1.2.3-1.4.6-.1.8.1,1.8-.1,2,.2,2.7.1,1.3.2h.2l.8-.5,1.5-.6.4-.7a7.974,7.974,0,0,1-3.4.7,4.4,4.4,0,0,1-1-.2l-1,.1h-1.4l-1,.4-.5.1-.5.2-1-.2-.2-.1a2.186,2.186,0,0,0-.5-.3c-.2,0-.7-.1-1.4-.1h-.1l-.1.2-1-.1-.9-.5-2.3-.2-1.2-.2h-1.5l-1.9-.6h-.6a1.862,1.862,0,0,1-1.1.4,1.113,1.113,0,0,1-1-.6h-.1a3.77,3.77,0,0,0-1.7.3l-1.5,1.1c-.1.1-.3.2-.3.4,0,0-.1,0-.1.2h.1l.7.2a1.18,1.18,0,0,0,.5-.5l.2-.2.8.2,2.9-.2,2.9.3,1.9-.2,1,.4h.6l1.6.3v.3c.1,0,.1.2.1.4a1.09,1.09,0,0,1-.6.9l-.4.9v.4l.2,1.5v.6l.3,1.1-.1.7a7.54,7.54,0,0,0,.5,1.4l.2.6-.1.1a3.3,3.3,0,0,0-.3,1.3l.2,2.9-.2,1.3.5,2-.4.6v.3l-.2,1.8-.1,2.3-.2,1.6.2,1v.2l-.2,1.1Zm.4,1.3-.3-.2a.31.31,0,0,0-.2-.1l-.5.3-.5-1.3.1-.2v-.2l.2-.8-.2-1.1.2-1.7.1-2.3.3-1.8-.1-.6.4-.4-.5-1.7.2-1.4-.2-2.8a3.359,3.359,0,0,1,.4-1.5l-.2-.3a4.639,4.639,0,0,1-.4-1.7V419l-.2-1v-.7l-.3-2,.7-1.6h.1l-.5-.1h-.3l-.6-.1-.9-.3-1.7.1L496,413l-3,.2h-.3a1.606,1.606,0,0,1-1.1.5h-.3l-1.5-.2v-.4a2.332,2.332,0,0,1,.2-1.1,1.555,1.555,0,0,1,.6-.8l1.6-1.1a4.813,4.813,0,0,1,2.2-.4h.7l.2.3s.1.3.2.3c0,0,.2,0,.6-.4l.2-.1,1.1.1,1.8.6,1.5-.1,1.3.3,2.4.1,1,.6v-.2l.9.1a5.758,5.758,0,0,1,1.5.1,1.886,1.886,0,0,1,.9.4l.4.1.5-.2.6-.1.9-.3h1.6l1-.2h.1a2.313,2.313,0,0,0,.9.2,8.627,8.627,0,0,0,3.6-.8l.2-.1.7.2.2,1.1-.5.4-.5.9-1.8.7-.7.5a1.885,1.885,0,0,1-.8.2H515l-1.2-.2-2.7-.1-1.9-.2-1.8.1-.6-.1-.1.5.1,1.4-.1.1-.2.8.1.7-.1.6.3,1h-.7c.2.2.4.3.5.6l-.1,1.6v.9a2.384,2.384,0,0,1-.6,1.4h.2l.3.1.3.8-.2.3a1.237,1.237,0,0,0-.3.2v.1l.5.5-.1,1.2.1.8a1.33,1.33,0,0,1-.3.8l.2.4-.1.6.2.7-.1.6.1,1.7-.4.1c-.3.1-.5.3-.5.4,0,.2.2.4.5.5l.3.1.3,4-.5.4-.4.2-1.1,1-.7.1Z" fill="#663815"/>
        <path id="Path_13634" data-name="Path 13634" d="M544.6,425.9l-.3-.4q-1.05-1.5-1.5-1.5a.774.774,0,0,1-.3.1h-.1l-1.1-.9a1.457,1.457,0,0,0-1.2-.5h-.8l-1.1-.1-.9.6h-.2c-.3,0-.5-.3-.5-.9l-.6-.1-1.1-.3h-1l-.5.1-.1-.2-1.2-.1-1.4.1-.5-.4-1.7-.8-.8-.7-.8-.1-.4-.1-.2-.5.8-.4a2.544,2.544,0,0,1-.2-.7,1.088,1.088,0,0,1,.1-.5l-.6-.3.2-.5.8-.5.9-1.6.5-.5.9-.8,1.4-.7,2.1-1,1.1-.1h1l1.6.3.6.1,1.1.8.5.2a3.691,3.691,0,0,0,1.5-.6l.6-.5a4.326,4.326,0,0,1,.5-.1v-.4c0-.3-.4-.5-1.1-.6l-.9-.3-.6-.2-1,.1-2-.3-.7.3-1.2.1-.6.1-.5.1-2.2.8-1.6.7-.9.7-2.2,1.6-.4.3a1.5,1.5,0,0,1-.5,1.2l-.7.5-.2.6-.3.5-.2.8v.2l.1.7v.7l.4.4-.1.1a5.89,5.89,0,0,0,.5,1.3,10.52,10.52,0,0,0,.9.8h.4l.7.3v.4a2.47,2.47,0,0,0,.9.4,8.712,8.712,0,0,0,1.9.5l1.2.3.4.1.5-.7.7.8,2.8.1.1-.2.4-.2.6.3.4.5,1.9.7,1.5.9.6.1.1.4.4,1.2.2,1.2h-.3l-.6,1.9-.3.3v.5l.1.4c0,.4-.3.6-.8.6-.1.4-.2.8-.4.9l-.6.8-.6.8a2.326,2.326,0,0,1-1.1.7l-.8.2-.8.2-.5-.1-.8.4-2.5-.2-.3.1c-.1.2-.2.4-.4.4,0,0-.3-.2-.8-.5l-2.8-.6-1.4-.6-1.4-.4-.3-.5-.4-.3-.5.1c-.1-.3-.2-.4-.2-.5a1.537,1.537,0,0,0-.6-.4l-.3-1.5a1.889,1.889,0,0,0-1.3.7,6.734,6.734,0,0,0-.7,1.1,2.107,2.107,0,0,0-.4,1.1c0,.1.2.4.7.7l1.1.7,1.1.1,1.7,1.2.6.1.5.1-.2-.3.5-.1,1.4.8,2.4.1.7.2h2.8a3.194,3.194,0,0,0,1.4-.3,1,1,0,0,0,.4.1,5.069,5.069,0,0,0,.9-.2l1.6-.5,3.2-2.1.4-.2.8-.8.8-.8.4-.6,1.1-1.5a2.333,2.333,0,0,0,.2-1.1c0-.3-.2-.5-.5-.7l-.1-.6.3-.1.9.1a7.381,7.381,0,0,0,.2-1.2l-.2-2Z" fill="#663815"/>
        <path id="Path_13635" data-name="Path 13635" d="M535.3,411.1l2.5.5,1.3.9a2.733,2.733,0,0,0,1.2-.5l.6-.4c.1-.1.2-.1.2-.2a3.224,3.224,0,0,0-.6-.2l-1.5-.4-.9.1-2-.3-.6.3-1.8.1-.4.2Zm-5.1,27.3,2.7.1a2.663,2.663,0,0,0,1.2-.3l.1-.1.2.1h.4a3.715,3.715,0,0,0,.7-.2l1.5-.4,3.2-2.1.4-.2,1.5-1.5.3-.6,1.1-1.5s.1-.1.1-.8a.355.355,0,0,0-.2-.3l-.2-.1-.2-1.1.7-.4.6.1a2.636,2.636,0,0,0,.1-.7l-.3-2.3-.2-.3a6.267,6.267,0,0,0-1.1-1.3l-.2.1h-.4l-1.2-1.1a1.613,1.613,0,0,0-.9-.3h-.8l-1-.1-.8.5a.6.6,0,0,1-.4.1c-.3,0-.8-.1-1-1l-.2-.1-1.1-.2a.349.349,0,0,0-.2-.1l-1.5.3-.1-.4h-1l-1.5.1-.6-.5-1.7-.8-.7-.6-.6-.1-.7-.3-.5-1,.8-.4a4.314,4.314,0,0,0-.1-.5c0-.1.1-.1.1-.2l-.6-.3.3-1.1.9-.5.8-1.6.5-.5,1-.8,3.2-1.7-1.5.5-1.5.8-1,.6-2.4,1.8a1.613,1.613,0,0,1-.6,1.3l-.6.4-.2.5-.2.5-.2.8.1,1.2.8.9-.4.1a1.54,1.54,0,0,0,.3.7l.6.6h.5l1,.4v.5a1.627,1.627,0,0,0,.6.3c.5.1,1.1.3,1.8.5l1.3.2.7-.8.9,1,2.3.1v-.1l.9-.4.8.5.4.5,1.8.6,1.4.9.9.1.2.8.4,1.1.2,1.9h-.4l-.6,1.7-.2.2.1.7a.991.991,0,0,1-.9,1c-.1.4-.2.7-.4.8l-.7.8-.5.8a3.219,3.219,0,0,1-1.3.8l-.9.3-.9.2-.4-.1-.8.4-2.6-.2a.793.793,0,0,1-.7.5c-.1,0-.2,0-1-.5L527,437l-1.5-.7L524,436l-.4-.7h-.1l-.8.1-.1-.5a.438.438,0,0,0-.1-.3,1.094,1.094,0,0,0-.4-.2l-.2-.1-.3-1.3a2.648,2.648,0,0,0-.6.5,7.015,7.015,0,0,0-.6.9,4.418,4.418,0,0,0-.3.8,2.229,2.229,0,0,0,.5.3l1,.7,1.1.1,1.7,1.2.1.1,1.2-.3,1.4.8,2.4.1Zm2.7,1H530l-.7-.2-2.5-.2-.3-.2-2.6-.4-1.5-1.1-1.2-.2-1.1-.7c-.5-.3-1-.7-1-1.1a3.816,3.816,0,0,1,.4-1.3,12.489,12.489,0,0,1,.8-1.2,3.268,3.268,0,0,1,1.6-.9l.5-.1.3,1.8a2.186,2.186,0,0,1,.5.3.52.52,0,0,1,.2.4l.3-.1.7.5.2.4,1.2.3,1.5.7,2.9.6c.1.1.3.2.4.3v-.2l.4-.1.3-.1h.1l2.4.2.9-.5.5.2.7-.1.8-.3a1.233,1.233,0,0,0,.8-.5l.6-.8.7-.8s.1-.1.2-.8l.1-.3h.4a.438.438,0,0,0,.3-.1l-.1-.3v-.8l.4-.4.7-2.1v-.7l-.5-1.2-.5-.1-1.5-.9-1.9-.8-.4-.4-.3-.2-.1.2-.2.2-3.3-.1-.4-.5-.3.4-1.9-.4a16.661,16.661,0,0,1-1.9-.5,3.7,3.7,0,0,1-1.1-.5l-.2-.1v-.4l-.3-.2a.1.1,0,0,1-.1.1l-.2.1-.3-.2c-.5-.4-.9-.7-1-1a4.778,4.778,0,0,1-.6-1.4l-.1-.3-.1-.1-.2-1.9.3-.8.3-.6.2-.7.8-.6c.2-.1.3-.4.3-.8v-.3l.6-.4,2.2-1.6,1-.7,1.6-.8,2.7-.9,1.9-.2.7-.3,2.2.3h.9l.7.2.9.2c1,.2,1.5.6,1.5,1.1a2.035,2.035,0,0,1-.1.5v.3h-.3a.774.774,0,0,1-.3.1l-.5.5a9.5,9.5,0,0,1-1.8.7l-.2.1-.6-.4-1.1-.7-.4-.1-1.7-.3h-1.9l-3.3,1.8-.9.7-.4.4-.9,1.7-.8.4.5.3v.3a.756.756,0,0,0-.1.4,1.009,1.009,0,0,0,.2.5l.1.4-.6.4.8.1.9.7,1.7.8.3.3,1.2-.1,1.7.1v.2l.9-.1h.4l2,.5.1.3v.5l.9-.6,1.3.1h.7a2.111,2.111,0,0,1,1.6.6l.9.8h.2c.5,0,1,.3,2,1.6l.3.6.1.5.3,2a9.318,9.318,0,0,1-.2,1.4l-.2.4-.8-.1a1.394,1.394,0,0,1,.4.9,2.42,2.42,0,0,1-.3,1.4l-1.1,1.5-.3.5-.9,1-1,.8-.4.2-3.3,2.2-1.5.5a3.422,3.422,0,0,1-1.1.2,1.578,1.578,0,0,1-.4-.1,3.194,3.194,0,0,1-1.4.3Z" fill="#663815"/>
        <path id="Path_13636" data-name="Path 13636" d="M549.7,438.7l.8-.2v-.2h.3a6.063,6.063,0,0,0,2.5-1.7v-.5l-.1-.8v-1.9l-.1-1.2.1-.3-.4-.2.4-1.1v-1.3l-.1-.4v-.8a.55.55,0,0,1-.3-.5v-.2l.3-.9v-1.2l.1-1.2a1.422,1.422,0,0,0-.2-.6l-.2-.5.4-.7v-1.2l-.3-.4a1.584,1.584,0,0,0,.5-1.2l-.1-1.7.1-.7-.3-.1v-.4a3.011,3.011,0,0,0,.4-1.4l-.2-2.1.4-.7.1-.7.1-.6a1.421,1.421,0,0,0-.2-.6.288.288,0,0,0-.2-.1l-.7.2-.7.2c-.3.5-.6.8-.7.8l-1,.1c-.4.1-.6.2-.7.4v1.8l.3.5-.2.7.2,1.8v.4a1.033,1.033,0,0,1,.4.8l-.2.8.1,1.5-.1.4.3.4c0,.2,0,.4-.2.5v.5l.1.4c.1,0,.1.1.1.2l-.1,2v.6l.3.3a3.456,3.456,0,0,0-.3,1.2c0,.3.1.5.1.7a1.756,1.756,0,0,0,.4.5l-.3.6v.8l-.1,1.5-.1.9v.7l.1-.1v.1h.6a1.691,1.691,0,0,1,.2.5l-.1.2-.9.1v1.3l-.5,1.9v.4a3.738,3.738,0,0,1-.4,1.1Z" fill="#663815"/>
        <path id="Path_13637" data-name="Path 13637" d="M549.9,438.1h.2l.1-.4.7.1s.4,0,1.9-1.4v-.3l-.1-.7.1-2-.2-1.2v-.1l-.4-.2.5-1.4-.1-2.2a.745.745,0,0,1-.3-.7.6.6,0,0,1,.1-.4l.2-.8v-1.1l.1-1.2c0-.1-.1-.2-.1-.4l-.4-.7.5-.9v-.8l-.4-.7.3-.3a1.234,1.234,0,0,0,.4-.8l-.1-1.7v-.3l-.3-.1v-1a2.158,2.158,0,0,0,.4-1.2l-.2-2.2.4-.8.2-1.2v-.1l-1,.3c-.4.6-.6.8-.9.9l-1.1.1a.288.288,0,0,0-.2.1v1.5l.3.5-.2.8.2,2a1.284,1.284,0,0,1,.4,1v.2l-.2.7.1,1.5v.2l.2.3v.2a.952.952,0,0,1-.2.7v.2l.1.4a.438.438,0,0,1,.1.3l-.1,2.4.4.4-.1.3a2.235,2.235,0,0,0-.3,1,1.215,1.215,0,0,0,.1.5c0,.1.1.2.3.4l.3.2-.5.8v.7l-.2,2.6h.4l.2.2a1.6,1.6,0,0,1,.3.8l-.1.6-.9.1v1.1l-.6,1.7.1.4a2.107,2.107,0,0,1-.4,1.1Zm-.4,1.1-.7-1,.2-.3a1.927,1.927,0,0,0,.3-.9v-.5l.5-1.8v-.6l.3-4.6v-.9l.2-.4a.758.758,0,0,1-.2-.4,2.39,2.39,0,0,1-.2-.9,2.607,2.607,0,0,1,.3-1.1l-.2-.2v-2.9l-.1-.4-.1-.8.2-.1v-.1l-.4-.5.3-.5-.2-1.4.2-.8a.758.758,0,0,0-.2-.4l-.2-.2-.2-2.4.2-.6-.3-.4.1-2.2a1.533,1.533,0,0,1,1-.7h1c0-.1.1-.2.4-.6v-.2l1.8-.5a1.087,1.087,0,0,1,.5.1l.1.1.1.2a3.09,3.09,0,0,1,.2.8l-.3,1.5-.3.6.2,2a3.359,3.359,0,0,1-.4,1.5l.2.1v1l.1,1.6a2.01,2.01,0,0,1-.4,1.3l.2.3v1.4l-.4.6.2.3a2.487,2.487,0,0,1,.1.8v1.2l-.1,1.3-.3,1a.31.31,0,0,1,.2.1l.2.1v1.1l.1,1.7-.3.8.4.2-.2.7.1,1-.1,2,.2,1.5-.1.2c-1.7,1.5-2.4,1.8-2.8,1.8v.1Z" fill="#663815"/>
        <path id="Path_13638" data-name="Path 13638" d="M560.2,414.3l.1,1.6v.3l.4.4-.1.9.1.7.1,1.3.1.6.7.3c0,.3,0,.5-.1.6,0,.1-.2.3-.5.4v1.5a.6.6,0,0,1,.1.4l.5.2-.3.3.3,1.2-.2.2-.5.3v3.3l-.1.4a1.234,1.234,0,0,0,.4.8v.5c-.3.2-.5.4-.5.7l.2.9.6-.1v.7c0,.3,0,.5-.1.6a1.541,1.541,0,0,1-.7.3l-.1.6-.2,1.8c0,.1-.2.6-.6,1.7l-.2.5.3.5.5-.2h.4l.9-.4.2.2.9-.6.9-.4a.349.349,0,0,0,.1-.2l-.3-.7.3-.1v-1.8l-.4-.5-.1-.8-.1-.5.2-.3.2.1v-.9l-.1-4.7.3-.8.5.2,1.7,1.3.8.4,1.1.7a.288.288,0,0,0,.2.1c.3,0,.6-.2.9-.7l.2.5.1.7c0,.1.1.2.4.4l1.5,1,.7.5.3-.1a3.7,3.7,0,0,0,1.6,1.7l1.2.6,1.2,1.4,3.4,2.3.3.3.3-.1.4.3.7.4.6.9.4.2.2-.3.3-.1a7.365,7.365,0,0,0,2.6-1,1.854,1.854,0,0,1,.7-.2h.2l.4-.6a2.058,2.058,0,0,0-.9-.5h-.1l-1.5.4-.3-.1-.1-.4c-.4-.3-.6-.4-.7-.4l-.4.1-.1.3c-.1.1-.2.1-.4.1a.758.758,0,0,1-.4-.2.831.831,0,0,1-.3-.7.75.75,0,0,1,.1-.5l-.4-.3-.3-.3h-1.2l.1-.9-1.7-1.5h-.6a1.628,1.628,0,0,0-.3-.6c-.1,0-.3-.2-.6-.4l-.9-.8-.9-.5-1.9-1.3c-.1-.1-.2-.2-.3-.2h-.7l-.3-1a.215.215,0,0,0-.2-.2,12.727,12.727,0,0,0-2.7-1.9,2.337,2.337,0,0,1-.7-.7c-.2-.1-.3-.1-.3-.2-.1-.1-.1-.2-.1-.4l.4-.3.6-.6.8-.8,1.8-1.4,1.5-.9,2.1-2,.5-.2a3.247,3.247,0,0,0,1.2-1.5l.2-.4a3.024,3.024,0,0,0,.9-.3,9.347,9.347,0,0,0,1-1.2l1.7-1.7c.6-.5.8-.9.8-1.2,0-.2,0-.3-.1-.4a.367.367,0,0,0-.3-.1h-.2l-1.3.8-1.8.8-.5.7-.6.9.2.4-.2.2.2.2c-.2.1-.3.2-.5.2h-.5l-.2.3a3.086,3.086,0,0,0-.5,1l-.7.3-2.1,2.1-.9.7-.4.5-.7.4-1.5,1-.5.2a1.628,1.628,0,0,1-.3.6,4.053,4.053,0,0,1-1,.3c-.2.1-.5.3-1,.6l-1.2.9-.6.3-.4.2-.4-.2.4-.4.2-.5v-1.4l.1-.6-.7-1.2V420c0-.2.2-.4.7-.5l.1-3.9q-.9,0-.9-.6c0-.3.3-.7.9-.9v-.5a1.683,1.683,0,0,0-.7-1.5,1.794,1.794,0,0,1,.5-.7l.1-.4c0-.4-.2-.7-.6-.7a1.6,1.6,0,0,0-.8.3l-2.9,1.4v.2l.6.8Z" fill="#663815"/>
        <path id="Path_13639" data-name="Path 13639" d="M576.9,414.6l.2.2-.3.3a.088.088,0,0,1-.1.1c.4-.1.5-.2.6-.2,0,0,.2-.2.9-1.1a16.465,16.465,0,0,1,1.8-1.7c.6-.6.6-.8.6-.9l-1.1.7-1.8.8-.9,1.2.2.4Zm3.4,22.2.6.4.8.5.5.7.5-.1a9.983,9.983,0,0,0,2.4-1,1.613,1.613,0,0,1,.9-.3.31.31,0,0,0-.2-.1h-.1l-1.6.4-.6-.2-.1-.5c-.2-.1-.2-.2-.3-.2l-.1.3-.2.1a1.141,1.141,0,0,1-1.4-.3,1.617,1.617,0,0,1-.4-1v-.3l-.2-.1-.1-.2-1.5-.1.1-1.1-1.4-1.2-.7-.1-.2-.2c-.1-.3-.1-.4-.2-.4,0-.1-.2-.2-.5-.5l-.9-.7-.8-.5-2-1.4h-1l-.4-1.4c-.3-.2-.8-.6-2.7-1.8a2.7,2.7,0,0,1-.8-.7,1.383,1.383,0,0,1-.4-.3.952.952,0,0,1-.2-.7v-.2l.6-.5.5-.6.9-.8,1.8-1.3,1.5-1,2.2-2,.5-.3c.2,0,.5-.3,1-1.2l.2-.5a.367.367,0,0,1-.3.1h-.2l-.1.1a1.793,1.793,0,0,0-.4.8l-.1.2-.8.4-2.1,2.1-.9.7-.4.5-.7.4-1.5,1-.4.1a4.338,4.338,0,0,1-.4.7,5.479,5.479,0,0,1-1.2.4,9.39,9.39,0,0,0-.8.5l-1.2.9-.7.4-.6.2-1.3-.5.9-.9.1-.2v-1.9l-.6-1.2V420c0-.4.3-.7.8-.9v-3a1.076,1.076,0,0,1-.9-1.1c0-.3.1-.8.9-1.2l.1-.2a1.149,1.149,0,0,0-.6-1.1l-.2-.2.1-.3a1.02,1.02,0,0,1,.5-.8V411a.348.348,0,0,0-.1-.2.987.987,0,0,0-.6.2l-2.5,1.2.5.6v1.5l.2,1.7.4.4-.1,1,.1.7.2,1.6.7.4v.3c0,.4,0,.7-.2.9,0,.1-.2.2-.4.4v1.1a.1.1,0,0,0,.1.1l.7.4-.5.6.3,1.2-.3.5-.4.2v1.4l-.1,2c0,.2.1.3.2.5l.2.1v.9l-.2.1c-.3.2-.3.4-.3.4l.1.3.6-.1.1,1.3a1.222,1.222,0,0,1-.3.9.918.918,0,0,1-.6.4v.3l-.2,1.8q0,.1-.7,1.8l-.1.2.3-.1h.3l1.1-.4.1.1.6-.4.7-.3-.2-.7.3-.2v-1.4l-.4-.7-.2-1.3.4-.8v-5.1l.3-1.4,1.2.5,1.7,1.3.7.4,1.1.7c.1,0,.3-.1.5-.5l.5-.5.6,1.3.1.6a.31.31,0,0,1,.2.1l1.9,1.3.6-.1.2.4a2.527,2.527,0,0,0,1.4,1.5l1.3.7,1.1,1.3,3.6,2.5Zm2.1,2.9-.9-.6-.6-.7-.8-.6-.3.2-.6-.6-3.4-2.3-1.1-1.3-1.1-.6a3.117,3.117,0,0,1-1.6-1.6l-.2.1-2.4-1.6c-.3-.2-.6-.5-.6-.8V429a.92.92,0,0,1-1.2.1l-1.9-1.1-1.6-1.2-.1.1.1,4.7v1.7l-.3-.2.1.7.4.6v2.1l-.2.1.1.6v.2l-.1.2-1.2.6-.9.7-.3-.2-.9.3h-.3l-.9.3-.6-1.1.3-.7a14.047,14.047,0,0,0,.6-1.6l.4-2.7.3-.1a.585.585,0,0,0,.4-.1.438.438,0,0,0,.1-.3l-.1-.1h-.5l-.2-1.3a1.1,1.1,0,0,1,.4-1.1,1.929,1.929,0,0,1-.3-1v-4l.6-.3-.2-1.2-.1-.1v-.2c0-.1-.1-.2-.1-.4a5,5,0,0,1-.1-1.1v-.7l.2-.2c.3-.1.4-.2.4-.3l-.6-.3-.1-.8-.1-1.4-.2-.7.1-.7-.5-.5.1-.4-.1-1.5-.1-1.3-.6-.7.1-.8,3.1-1.5a4.4,4.4,0,0,1,1-.2c.5,0,1,.3,1,1.2v.6l-.2.1-.2.2a2.271,2.271,0,0,1,.6,1.6l-.1.9-.3.1c-.2.1-.6.2-.6.4,0,.1.1.1.5.1h.5l-.1,4.8h-.4c-.1.1-.2.1-.3.2l.7,1.1-.2.7v1.7l.2-.1,1.1-.9c.8-.5,1-.6,1.2-.6.6-.2.7-.3.8-.3a1.1,1.1,0,0,0,.2-.4v-.2l.7-.3,2-1.3.4-.4,1-.8,2.2-2.1.5-.3c.1-.2.3-.5.5-.9l.4-.5h.5l.1-.2-.2-.4,1.5-1.9,1.8-.8,1.2-.8a1.089,1.089,0,0,1,1.1.2.908.908,0,0,1,.3.7,2.406,2.406,0,0,1-.9,1.6,14.747,14.747,0,0,0-1.7,1.6,13.3,13.3,0,0,1-1.1,1.3,3.383,3.383,0,0,1-.8.3l-.1.2a4.284,4.284,0,0,1-1.4,1.7l-.5.2-2.1,2-1.5,1-1.8,1.3-1.5,1.5.2.1.6.6c2.1,1.3,2.6,1.7,2.8,2,.1,0,.2.1.2.3l.3.7h.3a1.421,1.421,0,0,1,.6.2l1.9,1.4.9.5.9.8c.3.3.6.4.6.5a1.381,1.381,0,0,1,.3.4h.5l1.9,1.8v.6h.9l.4.5.8.3-.3.5c0,.1-.1.2-.1.3s.1.2.2.4h.1l.1-.3.6-.2a1.733,1.733,0,0,1,1.2.5l.2.1v.2l1.4-.3a1.877,1.877,0,0,1,1.3.7l.3.3-.8,1.1h-.4c-.1,0-.2,0-.5.2a15.846,15.846,0,0,1-2.6,1h-.2Z" fill="#663815"/>
        <path id="Path_13640" data-name="Path 13640" d="M609.3,423.1a2.176,2.176,0,0,0,1-.2l.8.4.5-.6c.1-.1.2-.3.4-.3.1-.1.2-.1.5-.1l.1-.2.3.9.2.2-.1,3.4.2.1-.3,1.1.5.4-.4,1.1a4.844,4.844,0,0,1,.3,1.8l-.5.4v.4l.2,1.3-.3,1.1-.2,1.2-.1.5.1.6-.4.8-.1.5.1.5.5.1.1.1,1.1-.5.2-.5.3-.1.3.2.3-.7,1.1-.9-.5-2.8.1-2.8-.5-1a1.329,1.329,0,0,1,.3-.7V428a7.375,7.375,0,0,1,.2-1.2l-.3-.5.1-3.2-.1-3.7.3-.6.1-.3-.2-.8-.1-.6-.4-.2a.781.781,0,0,1-.4-.4c0-.2.1-.4.3-.4h.2l.1-.5-.1-1.1.5-2.2-.1-.5-.2-1-.6-.2c-.4.3-.6.5-.8.5h-.5l-.6.5-.6.1c-.1,0-.2.2-.2.4a6.747,6.747,0,0,0,.2,1.4l-.2.4.1.9v.9l.5.5.3.4-.1.6.1,2.3-.4.9-.1.5-.4.1-1.2-.1-2,.2-1-.1h-.1a1.21,1.21,0,0,0-.9.6l-.7-.3-.9.1h-2.3l-.4.1-.2-.2-.1-.2h-.4a1.546,1.546,0,0,0-.6.3l-.1-.1-1.4-.1-.2.2-.4.1-1.4-.2-.6-.4-3.6-.2-.5-.1a3.8,3.8,0,0,0-.1-1.3l-.2-.4-.1-.4.2-.4.2-.4.1-.4-.3-.4.4-.9.2-.1-.1-.8-.4-1.4.1-.5a2.245,2.245,0,0,1,.1-1,1.545,1.545,0,0,1,.3-.6,3.091,3.091,0,0,1-.2-.8l-.6-.3-.9.4-1.1.5-.6.5-.5.2v1.3l.1,1.6v.4l.3,1.4c.5.1.9.3.9.8,0,.3-.3.6-.8.8l-.1.8-.2-.1.2.5.1-.1h.3l-.1.6.1,1.2.1,2.3.2.7-.1,1.6c0,.4.2.6.6.8-.1.3-.1.4-.2.5l-.2.2a.67.67,0,0,0-.4.7l.2.9-.2,3.4.1.4a1.328,1.328,0,0,1,.3.7,1.546,1.546,0,0,1-.3.6l.3.3v.8l-.3.1-.2.7-.5,1c0,.2-.1.4-.1.6a2.3,2.3,0,0,0,.3.9h.2l.1.1.5-.2.9-.6,1.1-.5a1.291,1.291,0,0,0,.9-1.3l-.1-.5-.3-1.2v-.4c.1-.2.2-.3.2-.4v-3.3l-.1-.9a2.092,2.092,0,0,1-.6-.4.764.764,0,0,1,.2-.5c0-.1.1-.2.3-.4l-.2-1.2a1.33,1.33,0,0,0,.3-.8c0-.3-.1-.5-.1-.7l-.3-1.6a1.209,1.209,0,0,1,.6-.9H596l.2-.5.6.4h.6l2,.2,1.4-.4.9.2,1.7-.1,2.1.3,2.2-.2h.2a1.222,1.222,0,0,1,.9.4h.5Z" fill="#663815"/>
        <path id="Path_13641" data-name="Path 13641" d="M612.5,438h.2l.7-.3.3-.4.6-.3.3-.4.8-.7-.4-2.5.1-2.8-.5-.9v-.2a1.394,1.394,0,0,1,.4-.9v-.5a4.869,4.869,0,0,1,.1-1.2l-.3-.5.1-3.3-.1-3.8.4-.8-.2-1.1-.2-.1a1.024,1.024,0,0,1-.6-.5l-.1-.2v-.1c.1-.6.4-.8.6-.8v-.1l-.1-1.1.5-2.1-.3-1.3a1.458,1.458,0,0,1-.8.5h-.4l-.8.5h-.3a2.537,2.537,0,0,0,.2,1.2v.2l-.2.5.1.7v.8l.3.4.5.6-.1.7.1,2.4-.6,1.7-.8.2-1.2-.1-1.9.2-1.2-.1c-.1,0-.2,0-.5.4l-.2.3-1-.4-.7.1-2.9.1-.6-.4s-.1,0-.3.2l-.2.1-.3-.1-1.1-.1-.1.2-.7.1-1.7-.3-.4-.3-3.5-.2-.9-.2v-.4a3.175,3.175,0,0,0-.1-1.1l-.2-.4-.2-.6.3-.6.2-.5-.3-.4.6-1.5-.1-.3-.3-1.5v-.6a7.965,7.965,0,0,1,.1-1.1c0-.1.1-.2.3-.4-.1-.2-.1-.3-.2-.5h-.1l-1.8.7-.8.6v1l.1,2,.2,1a1.17,1.17,0,0,1,.9,1.2,1.214,1.214,0,0,1-.8,1.1v.3h.5l-.2,1.1.1,1.1v2.3l.3.7L591,426q0,.15.3.3l.3.1v.4a2.011,2.011,0,0,1-.4.8l-.2.2c-.1,0-.2.1-.2.3l.2.9-.2,3.5.1.2a1.33,1.33,0,0,1,.3.8,1.688,1.688,0,0,1-.2.5l.2.3v1.2l-.4.1-.2.5-.4,1.1c-.1.1-.1.2-.1.4a.757.757,0,0,0,.1.4h.1l.2-.1.9-.5,1.1-.5a.875.875,0,0,0,.6-.9l-.1-.4-.3-1.2v-.8l.2-.1v-3.9a1.275,1.275,0,0,1-.6-.4l-.1-.2v-.1c.1-.3.1-.6.2-.8.1,0,.1-.1.3-.3l-.2-1.2.1-.1a.764.764,0,0,0,.2-.5,1.269,1.269,0,0,0-.1-.6l-.2-1.6a2.161,2.161,0,0,1,.6-1.4l.2-.1h2.4l.3-.7,1,.6h.3l2.1.2,1.4-.4.9.3,1.7-.2,2.2.3,2.3-.2a2.967,2.967,0,0,1,1.1.4.367.367,0,0,0,.3.1c.1,0,.3-.1.8-.2l.2-.1.7.3.3-.3a.782.782,0,0,1,.4-.4,1.072,1.072,0,0,1,.6-.2l.6-.6.4,1.5.3.3-.2,3.3.3.2-.2,1.2.4.4-.4,1.2a4.844,4.844,0,0,1,.3,1.8v.3l-.5.3v.2l.2,1.4-.4,1.1-.2,1.6.1.7-.4.8-.1.4Zm-22.4,1.2-.3-.3h-.3l-.1-.2a3.035,3.035,0,0,1-.3-1.1,1.882,1.882,0,0,1,.2-.8l.4-1,.3-.9.2-.1v-.2l-.4-.4.2-.3c.2-.3.2-.4.2-.5,0,0,0-.1-.2-.3l-.1-.2v-.4l.1-3.4-.2-.9a1.885,1.885,0,0,1,.6-1.2l.1-.1a1.217,1.217,0,0,1-.5-1v-.2l.1-1.3-.2-.8-.1-3.1-.1.2-1-3.3.8.8v-.1l.2-.1c.5-.2.6-.4.6-.4,0-.2,0-.3-.5-.3l-.3-.1-.4-1.8V415l-.1-1.5v-1.7l.8-.4.6-.4,2.2-1,1.1.5v.3a.987.987,0,0,0,.2.6l.1.3-.2.2a2.966,2.966,0,0,1-.3.4,6.173,6.173,0,0,1-.1.9v.4l.4,1.4.1,1.3-.3.1-.2.4.2.3-.1.8-.4.6.1.3.1.3c.1.1.2.4.2,1.1l.1.1,3.7.2.6.4,1.2.1.2-.1.1-.2,1.8.2a.864.864,0,0,1,.6-.3l.8.1.1.3h.2l2.3-.1.9-.1.6.2a1.217,1.217,0,0,1,1-.5h.1l1.1.1,1.8-.1H612l.1-.2.3-.9-.1-2.2.1-.4-.2-.3-.6-.6v-1.1l-.1-1,.2-.4a5.067,5.067,0,0,1-.2-1.3.8.8,0,0,1,.7-.9l.4-.1.7-.4h.6c-.1-.1.1-.1.5-.5l.2-.2,1.1.5.4,1.8-.5,2.3.1,1-.1,1,.2.2.4,1.7-.1.5-.3.5.1,3.6-.1,3.1.3.6v.1c-.1.6-.2.9-.2,1.1v1l-.1.1c-.1.2-.2.3-.2.4l.5.9-.1,2.9.5,3-1.2,1-.5,1-.5-.2-.2.4-1.6.7-.2-.2-.7-.2v-1l.1-.7.3-.5-.1-.6.3-1.8.3-1-.2-2,.5-.3a5.213,5.213,0,0,0-.2-1.4l-.1-.2.3-.9-.4-.4.2-1-.1-.1.1-3.5-.2-.2-.1-.4h-.1l-.2.2-.8.8-.9-.4a2.831,2.831,0,0,1-1.5.2h-.2l-.1-.1a1.1,1.1,0,0,0-.6-.3h-.2l-2.1.2-2.2-.3-1.8.1-.8-.2-1.3.4-2.2-.2h-.6l-.3-.2-.1.3-2.6-.1c-.3.4-.3.5-.3.5l.3,1.5c0,.3.1.5.1.8a1.613,1.613,0,0,1-.3.9l.2,1.3-.2.2c-.2.1-.2.2-.2.2a.1.1,0,0,1-.1.1c.1.1.2.1.3.2l.3.1.1,4.4a1.445,1.445,0,0,1-.2.7v.2l.3,1.6a2.036,2.036,0,0,1-1.1,1.9l-1.1.5-.8.5Z" fill="#663815"/>
        <path id="Path_13642" data-name="Path 13642" d="M636.7,437.7h.5l.2.4.4-.1.8.1c.3-.1.8-.1,1.5-.3l.1.3.7.2,2.4-.1h.1l1,.3.9-.4.7.1.2-.3.5-.3.5-.9c0-.1.1-.2.3-.2l.5.1.2-.9a1.087,1.087,0,0,0-.5-.1c-.1,0-.4.1-.9.2l-2.4.4-.4.2h-1.9l-.5.1.1.3-.4-.1-1.2-.1-.7-.1-2.4.2-1-.2-1.1.1-1.9-.4h-.1c-.2,0-.4.2-.6.4-.4-.2-.7-.3-.9-.4l-1,.2-2.8-1-.6-.1-.2-3.9-.6-1.1.6-1.1v-.3a2.108,2.108,0,0,0-.5-1.1c.3-.4.4-.6.4-.8v-.1l-.1-1.9v-.6a1.9,1.9,0,0,0-.3-.9l.3-.9-.3-.4-.2-.3.3-1.1-.1-1.1.2-.3,2.3.2.8-.5.9.3,1.3-.5,2.7.3.9-.4h.2a.723.723,0,0,1,.6.4l.6.1,3.4-.3,1,.3,1.7-.1,1.4.2h.1a.758.758,0,0,0,.4-.2l1.3-1.1.5-.3v-.7l-.4.1-.5-.1c-.1,0-.3,0-.3.1-.1,0-.2.1-.5.3l-.4.2a.914.914,0,0,0-.5-.3l-1.7.2-1.6.1-.9.2-.4.1-1.5-.3a2.662,2.662,0,0,1-1.2.3h-1.2l-1.3-.1-2.2-.1a5.077,5.077,0,0,0-.9.2l-.6.1a1.968,1.968,0,0,0-.8-.4l-2.8-.2-.5-.2v-.4l-.1-.6.2-1.6-.1-1.1v-.2l-.2-.1.5-.7,2.8.2.6-.2.4-.1.1.4h.6a2.173,2.173,0,0,0,1.6-.5,1.922,1.922,0,0,1,1.2.4h.4l1.9.2.9-.1,1.1.1h.2a5.063,5.063,0,0,0,1.7-.5,3.218,3.218,0,0,0,.7-.4,3.54,3.54,0,0,0,.1-.6,1.612,1.612,0,0,0,.7-.4,1.071,1.071,0,0,0,.2-.6l-.4-.1a6.2,6.2,0,0,0-1.1.3,6.192,6.192,0,0,1-2,.4v.2l-.7.2-1-.3-2.7.1-3.2-.3h-.1a5.754,5.754,0,0,0-1,.2l-.8-.2-1.4-.1-3-.5a.1.1,0,0,1-.1-.1h-.1a5.038,5.038,0,0,0-1.5.5l-.4.1a5.9,5.9,0,0,0-.6.4l-.2.4.8.3c.2.1.3.7.4,1.8l.4-.1.3.1c0,.1-.1.2-.1.3a.536.536,0,0,0,.3.4l.3.3-1.1-.3-.1.3-.1.5.1.2.2.4.1,1.3.2.5.4.1-.1.4-.2,1,.2,2.6-.1,1.5.1.4a2.649,2.649,0,0,1,.6.5,4.876,4.876,0,0,1,.3.7h-.8l.2.5v.5l-.1,1.2.1,4.7-.1.6v1.5l-.2,1.1-.1,1-.6,1.2-.1.5a7.933,7.933,0,0,0,1.5.5l3.6-.1,1.2.2,1-.3h.3a2.178,2.178,0,0,1,1,.4l.6-.2,4-.1Z" fill="#663815"/>
        <path id="Path_13643" data-name="Path 13643" d="M642.9,418.7l1.5.2a.1.1,0,0,0,.1-.1l1.5-1.2h-.5a1.239,1.239,0,0,1-.3.2l-.7.5-.3-.2c-.2-.2-.3-.2-.3-.2l-1.6.2-1.6.1-1.3.3-1.5-.3a2.662,2.662,0,0,1-1.2.3h-.6q.15,0,.3.3h.4l3.5-.2.9.2Zm.4,19h.1l1,.3.8-.4.6.1.1-.1.5-.4.3-.7c.1-.1.1-.2.2-.2l-2.4.4-.5.2h-1.8l.3.7-1.3-.5h-1.1l-.8-.1-2.4.2-.9-.3-1.2.2-1.9-.4s-.1,0-.3.2l-.2.3-.4-.2a2.6,2.6,0,0,0-.7-.3l-.9.2-2.9-1-.9-.2-.3-4.2-.6-1.1.6-1.4v-.1c0-.1,0-.3-.4-.8l-.2-.3.2-.3c.3-.4.3-.5.3-.5l-.1-1.9.1-.8s0-.1-.3-.5l-.2-.2.3-.9-.1-.2-.3-.6.4-1.1-.1-1.2.4-.7,2.4.2.8-.5,1,.3,1.2-.5,2.7.3.7-.3h-.9l-2.2-.1a1.433,1.433,0,0,0-.7.2l-.9.1-.2-.1c-.4-.3-.5-.3-.5-.3l-2.9-.3-.8-.2-.2-1.4.2-1.7-.1-1-.3-.2.9-1.3,2.9.2.5-.2,1-.2.1.5h.2a1.7,1.7,0,0,0,1.3-.4l.1-.1h.2a2.01,2.01,0,0,1,1.3.4h.3l1.9.2.9-.1,1.1.1h.2a3.739,3.739,0,0,0,1.5-.5,4.206,4.206,0,0,0,.5-.2v-.6l.3-.1a.349.349,0,0,0,.2-.1c-.1,0-.2.1-.4.2a12.965,12.965,0,0,1-1.8.3v.2l-1.1.3-1.1-.3-2.6.1-3.3-.3a1.512,1.512,0,0,0-.8.2l-.2.1-1-.3-1.2-.1-3.2-.6a4.016,4.016,0,0,0-1.3.4l-.4.2c-.1,0-.2.1-.3.1l.3.1c.3.1.5.5.6,1.6l.9.3-.1.4a.288.288,0,0,0-.1.2h.1l1.8,1.6-2.6-.6v.2l.3.6.1,1.4.6.2-.3,1.8.2,2.5-.1,1.6a1.2,1.2,0,0,1,.5.5,5.579,5.579,0,0,1,.5.8l.2.6-.9.1.1.4-.1,1.3.1,4.7-.2.7v1.4L624,435l-.1,1.2-.5,1.2a3.061,3.061,0,0,0,.9.3l3.6-.1,1.2.2,1.2-.3a1.666,1.666,0,0,1,1.1.4l.6-.2,3.9-.1.7-.4h.9l.2.4.1-.1.8.1a4.515,4.515,0,0,0,1.3-.3h.4l.3.4.4.1Zm-12,1.3-.2-.2a1.689,1.689,0,0,0-.7-.3h-.2l-1.1.3-1.3-.3-3.5.2a6.187,6.187,0,0,1-1.7-.6l-.5-.2.9-2,.1-1,.2-1.1v-1.4l.1-.7-.1-4.6.1-1.3v-.3l-.4-1,.7-.1a1.38,1.38,0,0,0-.4-.3l-.2-.1-.1-.6.1-1.6-.2-2.5.2-1.2h-.2l-.3-.8-.1-1.3-.3-.7.1-.7.2-.3-.2.1v-.6c-.1-.9-.2-1.2-.2-1.4l-1.2-.4.5-1a1.933,1.933,0,0,1,.9-.5l.3-.2a4.917,4.917,0,0,1,1.7-.4h.3l3,.5,1.3.1.8.2a2.177,2.177,0,0,1,1.3-.2l3,.4,2.8-.2,1,.3.1-.1v-.2l.4-.1a14.6,14.6,0,0,0,2-.3,2.678,2.678,0,0,1,1.2-.4h.2l.8.2-.1.4a1.884,1.884,0,0,1-.4.9c-.1.2-.3.3-.6.5,0,.2-.1.3-.2.5s-.3.3-.7.5a4.852,4.852,0,0,1-2,.6h-.2l-1.1-.1-.9.1-2.5-.3h-.1a1.329,1.329,0,0,0-.7-.3,2.969,2.969,0,0,1-1.8.5l-1-.1-.1-.2-.5.2-2.7-.2v.5l.1,1-.2,1.7.1.7h.1l2.7.2a3.554,3.554,0,0,1,.9.4l.5-.1a2.919,2.919,0,0,1,.9-.2l2.3.2h2.4a2.919,2.919,0,0,0,.9-.2l.2-.1,1.6.3.3-.1.9-.2h1.7l1.6-.3c.2.1.4.1.6.2h.2c.3-.3.4-.4.5-.4a4.326,4.326,0,0,1,.5-.1l.5.1.9-.1V418l-.8.6-1.2,1a1.08,1.08,0,0,1-.7.3h-.1l-1.4-.2-1.8.1-.9-.3-3.4.2h-.9l-.1-.2c-.1-.2-.2-.2-.2-.2h-.1l-1,.4-2.7-.3-1.3.5-.9-.2-.7.4-2-.2v1l-.3,1,.1.1.4.5-.3.9a2.3,2.3,0,0,1,.3.9l-.1.8.2,1.8a1.613,1.613,0,0,1-.3.9,1.666,1.666,0,0,1,.4,1.1.6.6,0,0,1-.1.4l-.5,1,.6,1.1.2,3.5h.3l2.7,1,.8-.1a2.92,2.92,0,0,1,.9.2,1.445,1.445,0,0,1,.7-.2h.1l1.9.3,1.1-.1,1,.2,2.4-.2.8.2h.8l1-.3h1.9l.3-.1,2.5-.5a3.5,3.5,0,0,1,1-.2,2.544,2.544,0,0,1,.7.2l.4.1-.5,1.7-.8-.1-.5.9-.6.6-.2.2-.8-.1-1.1.4-1.1-.4-2.2.1-1.1-.1-.1-.2a5.382,5.382,0,0,1-1.1.1h-.9l-.7.1-.2-.4-.9.4h-3.9Z" fill="#663815"/>
        <path id="Path_13644" data-name="Path 13644" d="M264.4,411.6c2.9.7,4.3,2.2,4.3,4.4q0,3,12.9,3,13.8,0,13.8,1.5c0,1.5-1.9,2.2-5.7,2.2q-8.1,0-8.1,1.5c0,2.8,4.5,4.3,13.4,4.3l19.2-1c10.8,0,16.2,1,16.2,3.2,0,.9,1.4,1.7,4.2,2.3,2.7.7,10.9,1.4,24.3,2.2,8.8.4,14.5,1.2,17.3,2.3a20.536,20.536,0,0,0,7.8,1.6c4.4,0,6.6-1.3,6.6-4a37.189,37.189,0,0,0-1.1-4.8,30.516,30.516,0,0,1-1.1-8.7,10.444,10.444,0,0,1,1.8-5.2c1.3-2.1,1.9-3.7,1.9-5,0-2.1-1.3-3.2-3.7-3.2a49.444,49.444,0,0,1-8.3-1,64.525,64.525,0,0,0-9.4-.9l-58.9,1.8a109.9,109.9,0,0,1-17.8-1.8l-20.1-3.1a61.357,61.357,0,0,0-10.5-1c-.9,0-1.7.7-2.3,2.1a9.587,9.587,0,0,0-.9,3.9c0,1.5,1.4,2.7,4.2,3.4Z" fill="#663815"/>
        <path id="Path_13645" data-name="Path 13645" d="M248,430.8q4.2,0,13.2-3.9a29.129,29.129,0,0,0-14.9-4.4c-1.5,0-2.5.3-2.8.8a5,5,0,0,0-.6,2.9c0,3.1,1.8,4.6,5.1,4.6Z" fill="#663815"/>
        <path id="Path_13646" data-name="Path 13646" d="M500.4,544.5l-.5-1.9-.5-1v-3.7l-3.2-7.6v-1.4l-2.1-2.6-1-2.1-1-2.1-1.5-2.7-2-2.2-1.8,1.2-1,1.7-1.2,1.2h-5.4l-.2-.8-1.2-1.1-1.6-1.4-.7-.2-.5-5.7-2.5-2.5-.8-1.4-1-1.4-6.1-3.4-2.7-.8-2.2-.8h-1.3l-1.5.2-.7.4-6.6-1.8-2.8,1.6-8.2.8-.3.8-1.8.7.3.8.5.6,1.3.6,5.2.5,1,.6,2.8-.2,2.3,1.6,3,1,1.7,1v1.7l8.6,7.2,4,1.4,3.8,3.5.7,1.5,1.3.2-1.3.6L477,532v2.3l1.5.4.2,5,1.3,3.2,1.3,4.6.3,7.3,1.2.2-.6,2,.3.8.5,1-1.4.4.6,2.5-.1,1.1-.5,7.6-.3.2L481,572l-1.5,9.7L472.7,598l-.5.7-.9,1.2-2.6,5.5-13.3,17.2-2.3,2.3-.7,1.1-9.4,8.2-.4,1-1.5,1.7-2.8,2-1.3,2-2.2,1.7-2.6,1.6-16.3,14.9-2,1.1-2.3.2-2.5-.2-2-1.4-2-3.3-1-1-3.8-3.1-.5-.7-1.8-1.2-.5-2.4-9-11.7-.5-.8-2.3-2.9-6-11.1-1.2-.6-1.3-1.6-.8-1.7-3.5-5.5-1.3-2.5-1.4-2-2.1-3.8-3.8-4-8.5-13.2-.9-1.4,5.5-6.8,1.4-1.9.4-1.1,8.1-9,2.3-3.6,1.7-1.5,2.1-6.2.7-.9.5-1.1,4.2-7.4-1.2-.2,3.3-6.7,1.6-5.3-.6-.9,1.8-.6,3.8-11.6,1-19.6-2-7.3-.7-2.1-.4-2.2-.5-1v-4.1l-3-8.4v-1.5l-2-2.8-.9-2.3-.9-2.3-1.4-3-1.9-2.4-1.7,1.3-.9,2L374,465h-5l-.2-.9-1.1-1.2-1.5-1.6-.7-.2-.4-6.2-2.4-2.8-.7-1.4-.9-1.6-5.7-3.8-2.6-.8-2.1-.9h-1.2l-1.3.2-.8.5-6.1-1.9-2.6,1.6-7.7.9-.2.9-1.7.8.2.9.5.6,1.2.7,4.9.6,1,.6,2.5-.2,2.2,1.8,2.8,1,1.6,1.1v1.9l8,7.9,3.8,1.5,3.5,3.9.7,1.6,1.2.3-1.2.6,5,5.3v2.6l1.4.4.2,5.4,1.2,3.6,1.2,5,.2,8.1,1.1.2-.4,2.1.2.9.5,1.1-1.4.4.7,2.8-.2,1.2-.5,8.4-.2.2-.3,1.5-1.4,10.7-6.4,17.8-.4.8-.9,1.3-2.4,6-10.3,15.5-4.1-7.1-1.9-.2-3.7-4.9-1.2-1.2-.8-1.3-1-.2v-1.2l-3.5-3.1L324.2,540l-3.3.6-3.5,3.7-1.3.6-1,.8-.6,1-.4,1.4-2,3.6-5.1,2.5-4.2,4.4.5.2v.5l-2.1.6v1.8l1.1.5.5,1.2,17.6,22.5,1.7,2.3,2.1,1.5-.6,1,4.5,6.7-.6.6-2.4,1.7L309.8,616l-1.9,1.3-2.1.2-2.3-.2-1.9-1.5-1.9-3.7-1-1-3.5-3.5-.4-.8-1.7-1.3-.5-2.6-8.4-12.8-.5-.9-2.2-3.2-5.6-12.2-1.1-.6-1.2-1.7-.7-1.9-3.3-6-1.2-2.8-1.4-2.2-1.9-4.2-3.6-4.3-7.9-14.5-1.7-3,.2-1.3-1.3-3.6-.7-.4-1-2-5.9-11.8-1.7-.2L238,508l-1.1-1.3-.7-1.5-1-.2v-1.3l-3.3-3.4L224,485.5l-3.1.7-3.3,4-1.2.7-.9.8-.5,1.1-.4,1.5-2,4-4.7,2.8-3.9,4.8.5.2v.6l-2,.6v2l1,.6.5,1.3,16.4,24.6,1.6,2.6,2,1.6-.5,1.1,12.9,22.5,8.4,16.4,3.3,3.9v.4l.3,1.1.9,1.5.8,1.3.7,2.3,6.6,9.9,1.1,2.1,1.2,1.5,1.7,2.4,2.5,5.3.9,1.3,2.2,3.4,1.4,2,.7,1,5,6.2v1.1l1.1.4.7.7.7.6.3,1.1-.3.6v.9l2.1,1.2,6,11,1.6,2.7,1.4,1.1,2.1.2,7.6-4.2,4.4-.5,2.9-1.5,2-2.8,6.9-8.7,4.2-2.8,13.9-15.9,2.6-2.5.8-.6,2.4,3.5,9,15,3.5,3.6v.4l.2.9,1.1,1.4.7,1.2.8,2.1,7.1,9,1.2,1.9,1.3,1.4,1.8,2.2,2.7,4.8.9,1.2,2.4,3.1,1.4,1.8.8.9,5.3,5.7v1l1.2.4.8.6.8.5.2,1-.2.6v.8l2.2,1.1,6.3,10,1.8,2.5,1.5,1,2.2.2,8.1-3.9,4.7-.4,3.1-1.4,2.2-2.5,7.3-8,4.6-2.5,14.8-14.5,2.8-2.3,2.7-1.5,5.8-5.9h-.7l-.3-.6,3.3-2.1,17.1-18,1.5-1.7.4-1,8.6-8.2,2.5-3.4,1.8-1.3,2.2-5.7.8-.7.5-1,4.6-6.8-1.3-.2,3.5-6.1,1.7-4.9-.6-.8,1.9-.6,4.1-10.5,1-17.9-2.1-6.6Z" fill="#663815"/>
        <path id="Path_13647" data-name="Path 13647" d="M508,481.9c0-1.4-.8-2.1-2.5-2.1a31.762,31.762,0,0,1-5.6-.7,42.209,42.209,0,0,0-6.3-.6l-39.7,1.2a75.424,75.424,0,0,1-12-1.2l-13.5-2.1a52.554,52.554,0,0,0-7.2-.7c-.6,0-1.1.5-1.5,1.4a7.369,7.369,0,0,0-.6,2.7c0,1,1,1.8,2.9,2.3,1.9.4,2.8,1.4,2.8,3,0,1.3,2.9,2,8.7,2,6.3,0,9.4.3,9.4,1q0,1.5-3.9,1.5c-3.7,0-5.5.3-5.5.9,0,2,3,2.9,9.1,2.9l12.9-.6c7.3,0,10.9.7,10.9,2.1,0,.7,1,1.2,2.8,1.6,1.9.5,7.4.9,16.5,1.5,5.9.3,9.7.8,11.6,1.5a13.259,13.259,0,0,0,5.3,1.1c2.9,0,4.4-.9,4.4-2.7a18.584,18.584,0,0,0-.7-3.2,22.138,22.138,0,0,1-.8-5.9,6.608,6.608,0,0,1,1.3-3.5,7.312,7.312,0,0,0,1.2-3.4Z" fill="#663815"/>
        <path id="Path_13648" data-name="Path 13648" d="M407.8,490a4.093,4.093,0,0,0-.3,1.9c0,2.1,1.1,3.1,3.4,3.1,1.9,0,4.8-.8,8.8-2.6a19.03,19.03,0,0,0-10-3C408.7,489.4,408.1,489.6,407.8,490Z" fill="#663815"/>
        <path id="Path_13649" data-name="Path 13649" d="M400.8,413.8h0l.2-.1h.4l.1.1v.3a.758.758,0,0,0,.2.4l.4.3-1.1-.3-.1.2-.1.1v.7l.2.4.1.7v.6l.2.5.4.1-.1.4-.2,1,.2,2.6v1.9a2.65,2.65,0,0,1,.6.5,4.353,4.353,0,0,1,.4.7h-.9l.2.5v1.1l-.1.6.1,2.3v2.4l-.1.6v1.5l-.2,1.1-.1,1-.5,1.2-.1.2-.1.3c.9.3,1.4.5,1.5.5l1.9-.1H406l.5.1.6.1,1.1-.3h.2a3.935,3.935,0,0,1,.6.2c.1,0,.2.1.4.2l.3-.1.3-.1,4.1-.1.7-.4h.5l.1.4.5-.1.8.1a6.372,6.372,0,0,1,.9-.2c.2,0,.3-.1.5-.1l.2.3.7.2,2.3-.1h.1l1,.3.9-.4.8.1v-.1l.1-.2.3-.1.3-.2.4-.9a.1.1,0,0,1,.1-.1c.1,0,.1-.1.3-.1l.4.1.2-.9a.756.756,0,0,0-.4-.1,8.365,8.365,0,0,0-1,.2l-2.3.4-.5.2h-1.9l-.5.1.1.3-.4-.1-1.1-.1-.7-.1-2.5.2-1-.3-1.1.2-1.9-.4h-.1c-.2,0-.4.2-.6.4-.4-.2-.7-.3-.9-.4l-.5.1-.4.1-2.8-1-.6-.1-.3-3.9-.6-1.1.6-1.1c0-.1.1-.2.1-.3a1.329,1.329,0,0,0-.3-.7c-.1-.1-.2-.3-.3-.4.1-.1.2-.3.3-.4a.757.757,0,0,0,.1-.4v-.1l-.1-1.9.1-.6a6.315,6.315,0,0,0-.4-.9l.3-.9-.3-.4-.1-.1-.1-.2.4-1.1-.1-1.1.2-.3,2.2.2.8-.5.9.3,1.3-.5,2.7.3.9-.4h.2a.367.367,0,0,1,.3.1l.3.3h.3l.3.1,3.5-.3.9.3,1.8-.1,1.4.2c.2,0,.3-.1.5-.2l1.2-1.1.6-.3v-.7l-.5.1-.5-.1h-.1a.31.31,0,0,1-.2.1c-.1,0-.2.1-.4.3l-.4.2c-.2-.1-.3-.2-.4-.2a.349.349,0,0,1-.2-.1l-1.7.2-1.6.1-.9.2-.3.1-1.6-.3a2.662,2.662,0,0,1-1.2.3h-1.2l-1.2-.1-2.2-.1h-.4c-.2.1-.3.1-.5.2l-.7.1a1.969,1.969,0,0,0-.8-.4l-2.8-.2-.4-.2-.1-.4-.1-.6.1-.8.1-.8-.1-1.1v-.2l-.1-.1.4-.7,2.8.2.6-.2.5-.1v.4h.7a2.545,2.545,0,0,0,1.6-.5,1.087,1.087,0,0,1,.5.1h.1a2.185,2.185,0,0,0,.5.3h.4l1,.1.9.1,1-.1,1,.1h.2a4.925,4.925,0,0,0,1.8-.5,5.938,5.938,0,0,0,.6-.4.749.749,0,0,0,.1-.5,2.187,2.187,0,0,0,.5-.3l.2-.2a3.332,3.332,0,0,0,.3-.6l-.4-.1a3.632,3.632,0,0,0-1.1.3,6.988,6.988,0,0,1-2.1.4v.2l-.6.2-1.1-.3-2.7.1-3.1-.3h-.2a1.759,1.759,0,0,0-.6.1c-.1,0-.2.1-.4.1l-.4-.1-.4-.1-1.4-.1-3-.5v-.1h-.1a3.739,3.739,0,0,0-1.5.5l-.4.1a1.162,1.162,0,0,0-.3.2c-.2.1-.3.1-.4.2l-.2.4.8.3c.2.1.3.7.4,1.8Z" fill="#663815"/>
        <path id="Path_13650" data-name="Path 13650" d="M421,418.7l1.4.2a.288.288,0,0,0,.2-.1l1.4-1.2h-.5l-.2.2-.7.5-.3-.2c-.1-.1-.2-.1-.3-.2l-1.6.2-1.7.1-1.3.3-1.4-.3a2.768,2.768,0,0,1-1.3.3h-.5l.3.3h.3l3.5-.2,1,.2Zm.3,19h.2l.9.3.8-.4.7.1.5-.5.4-.7a.349.349,0,0,1,.1-.2l-2.4.4-.5.2h-1.7l.2.7-1.3-.5h-1l-.8-.1-2.4.2-1-.3-1.1.2-2-.4a1.239,1.239,0,0,1-.3.2l-.2.3-.3-.2c-.5-.2-.7-.3-.7-.3l-1,.2-2.9-1-.9-.2-.3-4.2-.6-1.1.7-1.4v-.1c0-.1,0-.2-.2-.4-.1-.2-.1-.3-.2-.4l-.3-.3.3-.3c0-.1.1-.2.1-.3.2-.2.2-.3.2-.3l-.2-1.8.1-.8s0-.1-.3-.5l-.1-.2.3-.9-.5-.8.4-1.1-.1-1.2.4-.7,2.4.2.8-.5,1,.3,1.2-.5,2.7.3.7-.3h-.9l-2.2-.1h-.2c-.2,0-.3.1-.5.2l-.9.1-.2-.1c-.3-.3-.5-.3-.5-.3l-2.9-.3-.8-.2-.1-1.4.2-1.7-.2-1-.3-.2.9-1.3,3,.2.4-.2,1.1-.2v.5h.3c.6,0,1-.1,1.2-.4l.1-.1h.3a1.268,1.268,0,0,1,.6.1.288.288,0,0,1,.2.1.758.758,0,0,1,.4.2h.3l2,.2.8-.1,1.1.1h.2a4.663,4.663,0,0,0,1.6-.5,1.1,1.1,0,0,0,.4-.2v-.6l.3-.1c.1,0,.2-.1.3-.1-.2,0-.3.1-.5.2a10.922,10.922,0,0,1-1.7.3v.2l-1.1.3-1.1-.3-2.7.1-3.3-.3a.757.757,0,0,0-.4.1.6.6,0,0,0-.4.1l-.2.1-.9-.3-1.3-.1-3.1-.6a3.014,3.014,0,0,0-1.3.4l-.4.2c-.2,0-.2.1-.3.1l.2.1c.3.1.5.5.6,1.6l.9.3-.1.4v.2l1.9,1.6-2.6-.6-.1.2h.1l.2.6.1,1.4.7.2-.4,1.8.2,2.5-.1,1.6a2.651,2.651,0,0,1,.6.5,5.935,5.935,0,0,1,.4.8l.3.6-.9.1v.4l-.1,1.3.1,4.7-.1.7v1.4l-.2,1.1-.2,1.2-.5,1.2a2.483,2.483,0,0,0,1,.3l3.5-.1,1.2.2,1.3-.3a4.5,4.5,0,0,1,.8.2c.1.1.2.1.3.2l.5-.2,3.9-.1.8-.4h.9l.1.4.1-.1.9.1c.1,0,.4-.1.8-.2l.8-.1.3.4.4.1Zm1.2,1.3-.2-.1-1-.3-2.3.1-1-.1-.2-.2h-.1a4.14,4.14,0,0,1-1,.1h-.8l-.8.1-.2-.4-.8.4h-4l-.7.3h-.1l-.2-.1c-.1-.1-.2-.1-.4-.2a.775.775,0,0,0-.3-.1h-.2l-1.1.3-1.2-.3-3.5.2a7.385,7.385,0,0,1-1.8-.6l-.4-.2.3-.9.5-1.1.1-1,.2-1.1v-1.4l.1-.7v-6.2l-.3-1,.7-.1c-.1-.1-.3-.2-.4-.3l-.2-.1-.1-.6v-1.6l-.1-2.5.1-1.2h-.2l-.3-.8-.1-1.3-.2-.7v-.7l.2-.3-.2.1v-.6c0-.9-.1-1.2-.2-1.3l-1.2-.5.6-1a.78.78,0,0,1,.4-.4c.1,0,.3-.1.4-.1l.4-.2a4.488,4.488,0,0,1,1.7-.4h.3l2.9.5,1.4.1.7.2a.367.367,0,0,0,.3-.1,4.142,4.142,0,0,1,1-.1l3.1.4,2.7-.2,1,.3.1-.1v-.2l.4-.1a12.287,12.287,0,0,0,2-.3,2.612,2.612,0,0,1,1.3-.4h.1l.8.2-.1.5a1.909,1.909,0,0,1-.3.8c-.1.2-.2.2-.3.3-.1,0-.2.1-.3.2-.1.2-.1.3-.2.5a2.769,2.769,0,0,1-.8.5,4.471,4.471,0,0,1-2,.6h-.2l-1.1-.1-.8.1-2.6-.3h-.1a.52.52,0,0,0-.4-.2.367.367,0,0,0-.3-.1,2.86,2.86,0,0,1-1.7.5l-1.1-.1v-.2l-.6.2-2.6-.2-.1.1h.1l-.1.3.1,1.1-.2,1.7.1.7h.1l2.8.2c.2.1.5.2.9.4l.4-.1a4.329,4.329,0,0,1,.5-.1.6.6,0,0,1,.4-.1l2.3.2h2.5a2.921,2.921,0,0,0,.9-.2l.1-.1,1.7.3.3-.1.8-.2h1.7l1.6-.3a.757.757,0,0,0,.4.1.367.367,0,0,0,.3.1h.1c.3-.3.5-.4.6-.4h.2a.31.31,0,0,1,.2-.1l.5.1.9-.1V418l-.7.6-1.2,1a1.33,1.33,0,0,1-.8.3h-.1l-1.4-.2-1.7.1-1-.3-3.4.2h-.9l-.1-.2c-.1-.1-.1-.2-.2-.2h-.1l-.9.4-2.7-.3-1.4.5-.8-.2-.8.4-2-.2.1,1-.3,1v.1l.5.5-.4.9c.2.4.3.7.4.9l-.1.8.1,1.8a1.2,1.2,0,0,1-.2.8.088.088,0,0,0-.1.1c.1,0,.1.1.1.2a1.613,1.613,0,0,1,.3.9.6.6,0,0,1-.1.4l-.4,1,.5,1.1.2,3.5h.3l2.7,1,.8-.1a2.92,2.92,0,0,1,.9.2,2.543,2.543,0,0,1,.7-.2h.2l1.8.3,1.1-.1,1.1.2,2.3-.2.9.2h.7l1-.3h1.9l.4-.1,2.5-.5a2.676,2.676,0,0,1,1-.2,3.935,3.935,0,0,1,.6.2l.4.1-.4,1.7-.8-.1-.5.9-.7.6-.1.2-.9-.1Z" fill="#663815"/>
        <path id="Path_13651" data-name="Path 13651" d="M543.3,505.6l-2.4.4-.4.2h-1.9l-.5.1.1.3-.4-.1-1.2-.1-.7-.1-2.4.2-1-.3-1.2.2-1.9-.4c-.2,0-.4.2-.6.4a3.076,3.076,0,0,0-.9-.4l-1,.2-2.8-1-.6-.1-.2-3.9-.6-1.1.5-1.1a.768.768,0,0,0,.1-.3,2.108,2.108,0,0,0-.5-1.1,1.626,1.626,0,0,0,.4-.9l-.2-1.9.1-.7a1.6,1.6,0,0,0-.3-.8l.3-.9-.3-.4-.2-.3.3-1.1-.1-1.1.2-.3,2.3.2.7-.5,1,.3,1.3-.5,2.6.3,1-.4h.2a.51.51,0,0,1,.5.4h.6l3.5-.2,1,.3,1.7-.1,1.4.2h.1a.758.758,0,0,0,.4-.2l1.3-1.1.5-.3v-.7l-.4.1-.5-.1c-.2,0-.3,0-.3.1-.1,0-.2.1-.5.2l-.4.3a.864.864,0,0,0-.6-.3l-1.6.2-1.6.1-.9.2h-.4l-1.6-.2a2.016,2.016,0,0,1-1.1.3l-1.2-.1h-1.3l-2.2-.1a5.071,5.071,0,0,0-.9.2l-.6.1a1.968,1.968,0,0,0-.8-.4l-2.8-.3-.5-.1v-.4l-.1-.6.2-1.6-.1-1.1v-.2l-.2-.1.5-.7,2.8.2.6-.2.4-.1.1.3.6.1a1.84,1.84,0,0,0,1.6-.6,2.22,2.22,0,0,1,1.1.5h.5l1.9.2.9-.1,1.1.1h.2a5.064,5.064,0,0,0,1.7-.5c.3-.2.6-.3.6-.4a.845.845,0,0,0,.2-.6,1.537,1.537,0,0,0,.6-.4.779.779,0,0,0,.3-.7l-.4-.1c-.1,0-.5.2-1.1.4a13.012,13.012,0,0,1-2.1.4v.2l-.6.1-1-.2-2.7.1-3.2-.3h-.1a1.978,1.978,0,0,0-1,.2l-.8-.2-1.4-.1-3-.6h-.2a5.038,5.038,0,0,0-1.5.5l-.4.1a1.538,1.538,0,0,0-.6.4l-.2.4.8.3c.2.1.3.7.4,1.7l.4-.1.3.1a.756.756,0,0,0-.1.4.536.536,0,0,0,.3.4l.3.3-1.1-.3-.1.3-.1.5.1.2.2.4.1,1.3.1.5.5.1-.1.4-.2,1,.2,2.6-.1,1.5.1.4a1.2,1.2,0,0,1,.5.5c.2.1.3.4.4.7h-.8l.2.5v.4l-.1,1.2.1,4.8-.1.6v1.5l-.2,1-.1,1.1-.6,1.2-.1.5a7.935,7.935,0,0,0,1.5.5l3.6-.2,1.2.3,1-.3h.3a2.179,2.179,0,0,1,1,.4l.6-.2,4-.1.7-.4h.5l.2.4.4-.1h.8a11.472,11.472,0,0,0,1.4-.2l.2.3.7.1h2.4l1.1.3.9-.5.7.2.2-.3.5-.4.5-.8c0-.1.1-.2.3-.2l.5.1.2-.9a1.087,1.087,0,0,0-.5-.1,2.312,2.312,0,0,0-.9.2Z" fill="#663815"/>
        <path id="Path_13652" data-name="Path 13652" d="M539.4,488.5l1.5.2a.1.1,0,0,0,.1-.1l1.5-1.2H542a1.236,1.236,0,0,1-.3.2l-.7.5-.3-.2c-.2-.2-.3-.2-.3-.2l-1.6.2h-1.6l-1.3.3-1.5-.2a2.537,2.537,0,0,1-1.2.2h-.6l.3.3.4.1,3.4-.3,1,.3Zm.4,19h.1l.9.3.9-.4h.6l.1-.1.4-.3.4-.7c.1-.1.1-.2.2-.2l-2.4.4-.5.2h-1.8l.3.7-1.3-.5h-1.1l-.8-.1-2.4.1-1-.2-1.1.2-2-.4c.1,0,0,0-.2.2l-.2.3-.4-.2a1.082,1.082,0,0,0-.7-.3l-.9.2-2.9-1-.9-.2-.3-4.2-.7-1.2.7-1.3v-.1a1.08,1.08,0,0,0-.4-.8l-.3-.3.3-.3a1.2,1.2,0,0,0,.3-.6l-.1-1.8v-.8s.1-.1-.3-.6l-.1-.2.3-.8-.1-.2-.3-.6.4-1.1-.2-1.2.5-.7,2.4.2.8-.5,1,.3,1.2-.5,2.7.3.7-.3h-.9l-2.2-.1a2.639,2.639,0,0,0-.7.1l-.9.2-.2-.1c-.4-.3-.5-.3-.6-.3l-2.8-.3-.8-.2-.2-1.4.2-1.7-.1-1-.3-.3.8-1.2,3,.2.5-.2,1-.2.1.5h.2a1.7,1.7,0,0,0,1.3-.4l.1-.1h.2a2.2,2.2,0,0,1,1.3.4h.3l1.9.2.8-.1,1.2.1h.2a3.739,3.739,0,0,0,1.5-.5c.3-.1.4-.2.5-.2V481l.3-.1a.288.288,0,0,1,.2-.1c-.1,0-.2.1-.4.1a6.042,6.042,0,0,1-1.8.4v.2l-1.1.2-1.1-.3-2.6.2-3.3-.4a2.944,2.944,0,0,0-.9.3h-.1l-1-.3-1.3-.1-3.1-.5a4.015,4.015,0,0,0-1.3.4l-.4.2c-.1,0-.2.1-.3.1l.2.1c.4.1.6.5.7,1.5l.9.3-.2.5v.2h.1l1.8,1.6-2.6-.6v.2l.3.6.1,1.4.6.1-.3,1.9.2,2.5-.1,1.5v.1a1.2,1.2,0,0,1,.5.5,2.77,2.77,0,0,1,.5.8l.2.6-.9.1.1.4-.1,1.3.1,4.7-.2.7v1.4l-.2,1.1-.1,1.2-.5,1.2a3.06,3.06,0,0,0,.9.3l3.6-.1,1.2.2,1.2-.3a1.666,1.666,0,0,1,1.1.4l.6-.2,3.9-.1,1-.4h.6l.2.3h.1l.8.1a6.572,6.572,0,0,0,1.3-.3l.4-.1.2.5.5.1Zm-12,1.3-.2-.2a1.688,1.688,0,0,0-.7-.3h-.2l-1.1.3-1.3-.3-3.5.2a6.187,6.187,0,0,1-1.7-.6l-.5-.2.4-.9.5-1.1.1-1,.2-1.1v-1.4l.1-.7-.1-4.6.1-1.3v-.3l-.4-1,.7-.1a1.38,1.38,0,0,0-.4-.3l-.2-.1-.1-.6.1-1.6-.2-2.5.2-1.2h-.2l-.3-.8-.1-1.3-.3-.7.1-.7.2-.3-.2.1v-.6c-.1-.9-.2-1.3-.2-1.4l-1.2-.5.5-.9a1.934,1.934,0,0,1,.9-.5l.3-.2a5.064,5.064,0,0,1,1.7-.5l.3.1,3,.5,1.3.1.8.2a2.177,2.177,0,0,1,1.3-.2l3,.4,2.7-.2,1,.3.2-.1v-.3h.4a5.28,5.28,0,0,0,1.9-.4,4.116,4.116,0,0,1,1.3-.3h.1l.9.2-.1.4a1.884,1.884,0,0,1-.4.9.918.918,0,0,1-.6.4,1.071,1.071,0,0,1-.2.6,6.832,6.832,0,0,1-.7.5,4.774,4.774,0,0,1-2,.5h-1.3l-.9.1-2.5-.3h-.1a1.329,1.329,0,0,0-.7-.3,2.969,2.969,0,0,1-1.8.5l-1-.1-.1-.2-.5.2-2.7-.2v.5l.1,1-.2,1.7.1.7h.1l2.7.2a1.8,1.8,0,0,1,.9.4l.4-.1a4.4,4.4,0,0,1,1-.2l2.2.1,2.5.1a1.613,1.613,0,0,0,.9-.3h.2l1.6.2h.3l.8-.2,1.7-.1,1.7-.2c.2.1.4.1.6.2l.2-.1c.3-.2.4-.3.5-.3a.749.749,0,0,1,.5-.1l.5.1.9-.1v1.4l-.8.5-1.2,1.1a1.08,1.08,0,0,1-.7.3h-.2l-1.3-.2h-1.8l-.9-.2-3.4.2h-.9l-.2-.2c0-.2-.1-.2-.1-.2H532l-1,.4-2.7-.3-1.3.5-.9-.3-.7.5-2.1-.2.1,1-.3.9.1.2.4.5-.3.9a2.3,2.3,0,0,1,.3.9l-.1.8.2,1.7a1.929,1.929,0,0,1-.3,1,2.46,2.46,0,0,1,.4,1.1.6.6,0,0,1-.1.4l-.5,1,.5,1,.3,3.6h.2l2.8,1,.8-.1a1.486,1.486,0,0,1,.9.2.908.908,0,0,1,.7-.3l.1.1,1.8.3,1.2-.2,1,.3,2.4-.2.8.1.8.1v-.1l1-.2h1.9l.3-.1,2.5-.5a3.5,3.5,0,0,1,1-.2,1.952,1.952,0,0,1,.7.1l.4.2-.5,1.7-.8-.1-.5.9-.6.6-.2.2-.9-.1-1,.4-1.1-.4-2.3.1-1-.1-.1-.3a8.911,8.911,0,0,1-1.1.2h-.9l-.8.1-.1-.4-.9.4h-3.9Z" fill="#663815"/>
        <path id="Path_13653" data-name="Path 13653" d="M558,491.6l-1.3.5-.7.1-.4.1-.3-.3-1.8.1.1-.2c-.6-.2-.9-.5-.9-.8l.2-1v-.6l.1-.6-.2-.5c-.5-.1-.8-.3-.8-.7,0-.2.2-.5.6-.8v-1.4l-.1-1.4a3.708,3.708,0,0,1,.2-1.4.6.6,0,0,1,.6-.3l.3-.4h.4l2.9-.3h.3l.3-.2,2.9.3.3-.5h.5l.3.6h.5l1,.4.7.1.7.5.6.5c.4.2.5.6.5,1.2v.6l-.4,1.1-.1.7-1.1,1.2-1,1.6-1.4.6-.7.5-1.9.7-.4.2Zm16.6,15.5c-.4-.3-.6-.5-.8-.5l-1.3.2h-.2l-.5-.4-2-1.3-.8-.7-.3-.3-.9-.2a1.447,1.447,0,0,1-.2-.7v-.3l-.3-.3-.6-.7-1-1.1c-.2-.2-.4-.3-.5-.4-.1,0-.2-.2-.3-.5l-.9-.5.1-.6-.9-1-.8-.7-1.1-1.3-.5-.5h-.4c-.2,0-.4-.2-.4-.6l.2-.2-.4-.4a.845.845,0,0,0-.6.2h-.5v-.2a.914.914,0,0,1,.3-.5l.2-.4a.536.536,0,0,1-.3-.4.353.353,0,0,1,.3-.3c.1,0,.2.1.4.2l.5-.5h.5l1-.4h.5l.6-.2.5-.2c.1-.1.3-.1.4-.3.1-.1.1-.2.2-.4l.4-.1.7-.4.7-.3.9-1.1.5-.2.2-.3-.2-.4c0-.1.1-.2.1-.3.4,0,.6,0,.7-.1l.2-.3.5-.4.2-.5a.908.908,0,0,1-.3-.7l.7.1a6.722,6.722,0,0,0,.3-1.8,3.2,3.2,0,0,0-.3-1.4,3.134,3.134,0,0,0-1.1-.8l-1.3-.3-1.1-.6-1.4-.1-2.1-.4h-5l-.5-.3-2.1.4c-.1,0-.3-.1-.6-.4l-.7.1-1.4.1a6.512,6.512,0,0,0-2.6.6l-.3.1-.5.1v.6l.8.4a2.662,2.662,0,0,1,.3,1.2l-.1,1.5.1.1v1a7.76,7.76,0,0,0,.1.9,3.554,3.554,0,0,0,.4.9l-.1.8.1,1.6v1a.55.55,0,0,1,.5.3v.8c-.4.1-.7.3-.7.5l.2.5-.1,1,.2,2-.2,1.5v1.6l.2.3-.1.8a1.02,1.02,0,0,0,.5.8l.3.3c0,.3,0,.5-.1.6a.52.52,0,0,1-.4.2H550l-.3.3.2,1.5-.3.7v1.4a3.6,3.6,0,0,1-.2,1.1,2.825,2.825,0,0,0-.5,1.2c0,.2.1.3.4.3.1,0,.3-.1.4-.1l1.1-.9a.864.864,0,0,1,.6-.3h.7l.3-.3.5-.4a1.421,1.421,0,0,0,.2-.6V506l-.4-3.3v-1.8l.1-.4-.2-.5.1-.6-.1-.6.1-.8v-1.2l.2-.5a.367.367,0,0,0,.1-.3c0-.2-.1-.3-.3-.4v-1l.2-.5.2-.6.4.2,1.3,1,.5.2.6.5.7.4.6.9,1.2.9.3.3,1,.2c.2.1.3.2.3.6v.4l.4.5.7.8.6.3.4.5.6.5.3.4.4.1.4.6.8.3.7,1,.8.3.2,1.2c0,.1.1.3.5.7l.2.3.6.4,1,.6c.1,0,.3.4.8,1l.7.1a4.436,4.436,0,0,0,1.3-.2l1.5-.5.7-.2.5-.4Z" fill="#663815"/>
        <path id="Path_13654" data-name="Path 13654" d="M560,491.7h.5l1.1-.4h.4l1-.4a.288.288,0,0,0,.2-.1.438.438,0,0,0,.1-.3l.1-.3.6-.1.6-.3.7-.3,1-1.1.4-.2-.1-.3a.9.9,0,0,1,.1-.5l.2-.3h.6l.2-.2.4-.5a1.549,1.549,0,0,1-.2-.8l-.1-.6.9.2a3.177,3.177,0,0,0,.2-1.3,1.978,1.978,0,0,0-.2-1.1,1.456,1.456,0,0,0-.9-.6l-1.2-.3-1.1-.6-1.3-.1-2.2-.4h-1.1l.7.1.2.5.4.1.9.3.7.1,1.5,1.1a1.753,1.753,0,0,1,.7,1.6l-.1.7-.4,1.2-.1.7-1.2,1.3-1,1.7-1.5.7-.6.4Zm-4.5-.2.3.3.8-.2,1.4-.5.4.2.3-.2,1.9-.7.6-.3,1.3-.6.9-1.6,1.1-1.2.1-.5.4-1.1.1-.5c0-.6-.3-.8-.4-.8l-1.2-1-.7-.1-1.1-.3-.6.1-.2-.7-.3.5-3-.3-.3.2h-.5l-2.7.3h-.3l-.3.4h-.4a6.764,6.764,0,0,0-.1,1.2l.1,3-.2.2c-.4.3-.4.4-.4.4,0,.1.3.2.4.2l.2.1.4.8-.2.8v.5l-.1.9c0,.2.2.3.5.5l.3.1Zm14.1,16.7h.5a4.3,4.3,0,0,0,1.2-.2l1.4-.5.7-.2.3-.2-1.2.2H572v-.1l-.5-.5-2-1.2-1.1-.9-.9-.3-.1-.2c-.2-.2-.2-.5-.2-.9v-.1l-1.8-1.9a1.181,1.181,0,0,1-.5-.5c-.1,0-.2-.1-.4-.5l-1.1-.5.2-.7-.7-.9-.8-.6-1.5-1.7h-.2c-.3,0-.8-.1-.9-1.1l-.1.1h-.9l-.2-.2a.9.9,0,0,1-.1-.5,1.033,1.033,0,0,1,.4-.8c-.1-.2-.2-.3-.2-.5,0-.1.1-.2.1-.4l.1-.1h-.1l-.5-.2-1.2.4-1.3.3-.3-.3-2.3.1.1-.4a1.674,1.674,0,0,1-.8-1.1l.2-1.1v-.5l.1-.6-.1-.1a1.287,1.287,0,0,1-.9-1.1,1.365,1.365,0,0,1,.6-1l-.1-2.5a3.168,3.168,0,0,1,.3-1.7c0-.2.3-.5.8-.6l.3-.4h.7l2.7-.3h.3l.3-.2,2.7.3.3-.5h-1.2l-1.5-.1-.5.1a.6.6,0,0,1-.4-.1l-.3-.2-1.9.4a1.394,1.394,0,0,1-.9-.4l-.4.1-1.5.1a9.154,9.154,0,0,0-2.5.5l-.3.2.5.3a2.26,2.26,0,0,1,.5,1.5l-.1,1.3.1.1v1.1a3.555,3.555,0,0,0,.4,1.7l.1.1-.2,1,.2,2.1c.2.1.3.3.5.5v1.3l-.3.1c-.2.1-.3.1-.3.2l.1.4-.1,1,.2,1.9-.2,1.7v1.4l.2.3-.1.9c0,.1,0,.2.3.4l.5.5v.2a2,2,0,0,1-.2.9.983.983,0,0,1-.8.4h-.1l.2,1.4-.3.7v1.3a2.768,2.768,0,0,1-.3,1.3,1.741,1.741,0,0,0-.3.7l1-.8a1.268,1.268,0,0,1,.9-.4h.5l.6-.6c.1,0,.1-.1.1-.2l-.4-4.1.1-1.5-.3-.5.2-.6-.1-.5.1-1,.1-1.3.2-.5a.088.088,0,0,0-.1-.1l-.2-.2.1-1.2.4-1.7,1.1.4,1.2,1,.6.2.6.6.9.4.5.8,1.1.9.2.3.9.1a1.084,1.084,0,0,1,.7,1.1v.3l.9,1,.7.4.3.5.6.5.3.2.4.1.4.7.8.3.7,1,.9.4.2,1.4.4.4.3.3.4.4,1.1.6s.1,0,.7,1Zm-20.3,1a.811.811,0,0,1-.9-.8c0-.2,0-.4.5-1.4a2.919,2.919,0,0,0,.2-.9l.1-1.5.2-.6-.2-1.6.5-.7h.6v-.1l-.1-.1a1.706,1.706,0,0,1-.7-1.2l.1-.6-.2-.3v-1.8l.2-1.6-.2-1.9.1-.9-.2-.6v-.1c.1-.4.4-.6.8-.8v-.2l-.1-.1h-.5V490l-.1-1.6.1-.7a5.9,5.9,0,0,1-.4-.8c0-.2-.1-.6-.1-1.1l.1-.8-.2-.1.1-1.7a1.077,1.077,0,0,0-.2-.8l-1-.5.2-1.2,1-.4a7.368,7.368,0,0,1,2.7-.6l2.3-.2.1.2a1.1,1.1,0,0,1,.4.2l2.2-.4.5.3h4.9l2.2.4,1.5.2,1.2.6,1.2.3a3.052,3.052,0,0,1,1.3,1,2.726,2.726,0,0,1,.4,1.6,5.438,5.438,0,0,1-.4,2l-.1.3h-.1l-.5.9-.6.7c-.1.2-.3.2-.6.3l.1.2-.5.7-.4.2-1.1,1.1-.6.3-1,.5c0,.1-.1.3-.2.3a.664.664,0,0,1-.5.4l-1.3.5h-.4l-1.1.4h-.3l-.5.4-.2.5h.2l.2-.1.9,1-.3.3h.4l.6.7,1.2,1.3.8.7,1,1.2-.1.4.7.4.1.1a1.069,1.069,0,0,0,.3.5c0,.1.2.2.4.4l2.1,2.3v.4a.367.367,0,0,0,.1.3l.8.2,1.1,1,2,1.3.4.3,1.2-.2c.4,0,.7.2,1.2.7l.5.4-1,.6-.6.5-.8.1-1.4.5a3.416,3.416,0,0,1-1.5.2h-1l-.1-.2c-.5-.7-.6-.9-.7-.9l-1-.6-.6-.5-.3-.3c-.4-.5-.6-.7-.6-.9l-.2-.9-.6-.3-.7-1-.8-.3-.4-.6-.4-.1-.4-.5-.6-.5-.3-.4-.7-.4-1.2-1.4v-.8l-1.1-.2-.4-.4-1.2-1-.5-.7-.6-.3-.6-.6-.6-.2-1.1-.9-.2.5v.6a1.329,1.329,0,0,1,.3.7.764.764,0,0,1-.2.5l-.1.4-.1,1.9.1.7-.1.4.2.5-.1.5v1.7l.4,3.5a1.086,1.086,0,0,1-.4.9l-.9.9h-.9a.367.367,0,0,0-.3.1l-1.1.9a1.079,1.079,0,0,1-.7.3Z" fill="#663815"/>
        <path id="Path_13655" data-name="Path 13655" d="M596,496.6c-.1.1-.3.1-.6.1a8.437,8.437,0,0,1-1.9.2h-.6c-.1.3-.3.4-.4.4l-.2-.1.1-.2-.5.1-1.5.1-.4.2-.6-.2-1.7.1-2.6-.2-.4.1-.1.1-.5-.2-.5.2-.7-.2-.3-.1.1-.5c.1-.2.1-.4.2-.5a.755.755,0,0,0,.4-.1l-.4-.6a2.361,2.361,0,0,0,.9-.8,15.694,15.694,0,0,0,.3-1.6l.1-.5c.2,0,.4,0,.4-.1.1,0,.2-.2.3-.5l.2-.4c.1-.2.3-.4.3-.5.1-.2.3-.5.5-.9l.9-2.1.1-.5a1.382,1.382,0,0,1,.5-.9l.6-.6a5.309,5.309,0,0,0,.3-1.1h.2l.2-.8.3-.2a4.8,4.8,0,0,1,1,.9l1.4,2.9,1,.5.2.6-.3.4,1.3,2.5h.3l1,1.9.8.2v.4a4.013,4.013,0,0,0,.4,1.6h.4l.1.2-.1.1.2.2a5.738,5.738,0,0,1-.7.4Zm8.2,8.6-.6-1.2-.7-.7v-.4c-.5-.3-.7-.5-.7-.7l-.1-.4-.3-.3-.8-.5a.31.31,0,0,1-.1-.2l.1-.9v-.1c0-.3-.2-.6-.7-.8a1.268,1.268,0,0,0-.1-.6s-.1-.2-.4-.7a3663.8,3663.8,0,0,0-.2-.4.758.758,0,0,1-.2-.4.1.1,0,0,1-.1-.1c-.1-.1-.1-.2-.2-.2l-.9-1.6-.4-.4c0-.1.1-.2.1-.3,0-.2-.3-.6-.8-1.1v-.5l-.4-.6-.7-1.4-.6-.5-.3-.4-.1-.4.2-.4v-.2l-.4-.5-.5-.9-.4-.5v-.4c0-.2-.2-.4-.7-.7-.2-.2-.2-.3-.2-.4l.5-.2-.5-.9-.4-1.2-.8-1.3-.6-.8-.3-.7.1-.2-.2.1-.3-.9a1.149,1.149,0,0,0-1.1.6l-.3.6-1.4,1c-.2.1-.2.2-.2.4v.3l.2.6-.1.3a2.188,2.188,0,0,0-.9.3,2.469,2.469,0,0,0-.4,1.1l-.2.5.2.5a3.053,3.053,0,0,0-.9,1.3l-.7,1.9-1,2.4.1.2a2.253,2.253,0,0,0-.5.5l-.3.9-.3.5.2.3a1.628,1.628,0,0,1-.3.6,3.607,3.607,0,0,1-.5.4.4.4,0,0,1,.2.4.31.31,0,0,1-.1.2l-.8.8-.8,1.3-.7,1.3-.6,1.3-.4.7-.9,1.9-.7.7v.6c0,.4-.2.6-.8.7v.2l-.3.4-.3.4-.4.8-.6.7-.8,1.4a2.771,2.771,0,0,0,1.2.5c.2,0,.4-.1.7-.1l-.1-.3c.6-.2.9-.3,1-.6l1.1-2.5.3-.5v-.4a14.7,14.7,0,0,0,.9-1.5,11.241,11.241,0,0,0,.7-1.5h.2l.4-.8c.3-.9.6-1.3,1-1.4l.9-.1.6-.2,1.8.2h.2a1.383,1.383,0,0,0,.9-.5h.5l.7.3,1-.3,1.7.2,2.9-.4H594l2.2.4c.4,0,.6-.3.8-.9l.7.3a6.531,6.531,0,0,0,.9,2c0,.1.1.1.1.2.1.1.3.2.4.3v.3a2.921,2.921,0,0,0,.2.9l1,1.8.2.7.7,1.4.1.5h.4a1.929,1.929,0,0,0,.3,1v.8l.3.4v.5l.4-.1h.7l.8-1.3.8-.7c.1,0,.1-.1.1-.2a1.707,1.707,0,0,0-.5-1.1Z" fill="#663815"/>
        <path id="Path_13656" data-name="Path 13656" d="M582.8,494.6v.2a3.393,3.393,0,0,0,.6-.6c0-.1.1-.5.2-1.3l.1-.9-.4,1.2.2.3-.1.3a2.092,2.092,0,0,0-.4.6l-.2.2Zm6.7,2.1.5.2c.1-.1.2-.2.3-.2l2-.2.9-.1v.1l.2-.1c.9,0,1.5-.1,1.9-.1a2.8,2.8,0,0,1,.5-.1l-.1-.2a3.87,3.87,0,0,1-.5-1.8v-.1l-.7-.2-.9-1.8h-.3l-1.5-3,.2-.5v-.2l-.9-.4-1.5-3.1a5.744,5.744,0,0,0-.5-.4l-.3.7h-.1a2.191,2.191,0,0,1-.3.8,2.1,2.1,0,0,1-.6.8,1.531,1.531,0,0,0-.5.7l-.1.5-.9,2.2c-.2.4-.3.7-.4.9s-.3.4-.4.6l-.2.3a4.877,4.877,0,0,1-.3.7c-.1.1-.3.1-.4.2v.1a6.073,6.073,0,0,1-.4,1.7,5.012,5.012,0,0,1-.7.8l.6.8-.8.1h-.1v.2l.4.2.6-.2.2.1.6-.1,2.7.2Zm13,11.3.2.4h.4l.7-1,.8-.8c0-.1-.1-.3-.4-.7l-.4-.4-.6-1.2-.8-.8v-.4a2.233,2.233,0,0,1-.7-.7l-.1-.3-.1-.3-.9-.4-.1-.1a1.087,1.087,0,0,1-.1-.5l.1-1c0-.1-.1-.2-.4-.4l-.3-.1V499a.6.6,0,0,0-.1-.4,1.546,1.546,0,0,0-.3-.6v-.1c-.1-.2-.2-.2-.2-.3-.1-.2-.2-.3-.3-.5l-.1-.2-1-1.6-.5-.6v-.2a.31.31,0,0,0,.1-.2,3.523,3.523,0,0,0-.6-.7l-.2-.1v-.6l-.3-.6-.7-1.3-.5-.5-.4-.6-.2-.5.2-.4-.3-.4-.5-.9-.5-.6v-.6a2.229,2.229,0,0,0-.5-.3l-.1-.1a1.494,1.494,0,0,1-.3-.7V485l.3-.1-.2-.4-.5-1.2-.7-1.3-.6-.7-.2-.6h-.2l-.2-.8c-.2,0-.3.1-.4.3l-.3.7-1.6,1a.349.349,0,0,1,.1.2l.2.7-.2.7-.3.1a3.127,3.127,0,0,0-.7.2,7.2,7.2,0,0,0-.3.8l-.1.4.3.6-.3.2c-.5.6-.7.9-.7,1.1l-.7,2-1,2.2.1.3-.2.2c-.2.2-.3.3-.3.4h.4a.1.1,0,0,0,.1-.1.348.348,0,0,0,.1-.2l.3-.6a1.382,1.382,0,0,1,.3-.4c.1-.2.2-.5.4-.9l.9-2.1.1-.3a1.889,1.889,0,0,1,.7-1.3l.5-.5a2.943,2.943,0,0,1,.3-.9l.1-.3.1-.1.2-.6.7-.5.3.2a5.974,5.974,0,0,1,1.1,1l1.4,2.9,1,.5.3.9-.2.4,1,2h.3l1,2,.9.2.1.8a2.332,2.332,0,0,0,.2,1.1h.4l.4.8.2.2-.4.3a2.308,2.308,0,0,1-.7.5,2,2,0,0,1-.9.2c-.4.1-1,.1-1.9.2h-.3a1.012,1.012,0,0,1-.7.4l-.2-.1-.5-.2-1.2.1c-.1,0-.1.1-.2.2l-.2.2-.9-.4-1.6.1-2.7-.1-.2.3-.7-.3-.5.2-1.6-.4.3-1a1.541,1.541,0,0,1,.3-.7l-.1-.2-.7.7-.8,1.2-1.2,2.6-.6.7-.8,2-.6.6v.4c0,.3-.1.8-.9,1.1l-.6.9-.4.7-.7.8-.5.9a1.433,1.433,0,0,0,.7.2V508l.4-.1c.6-.1.7-.3.7-.3l1.3-2.9.1-.5v-.1a8.051,8.051,0,0,0,.9-1.4,3.768,3.768,0,0,0,.6-1.4l.1-.3.3-.1.2-.5c.4-1,.8-1.5,1.4-1.7h.1l.8-.1.7-.2,1.9.2a.6.6,0,0,0,.6-.3l.1-.3.9.2.7.2.8-.2,1.8.1,2.9-.4H594l2.2.4c.1,0,.2-.2.3-.5l.1-.6,1.5.6.1.3a4.586,4.586,0,0,0,.8,1.9l.1.1.2.2.3.1v.6c0,.3.1.5.1.7l1.1,1.9.1.7.8,1.5h.4v.4a6.881,6.881,0,0,0,.3.8l.1.2v.8Zm-.7,1.6v-.9l-.3-.5.1-.6-.1-.2a1.421,1.421,0,0,1-.2-.6H601l-.3-.8-.7-1.4-.2-.7-.9-1.8a2.153,2.153,0,0,1-.2-1.1c-.2-.1-.2-.2-.3-.2l-.3-.3a9.11,9.11,0,0,1-.8-2,1.214,1.214,0,0,1-1.1.8h-.1l-2.2-.4h-.6l-.6-.1-2.9.4-1.7-.1-1,.3-1-.3a1.533,1.533,0,0,1-1.1.5h-.2l-1.7-.2-.6.2h-.9a3.789,3.789,0,0,0-.7,1.1l-.5,1.1h-.2c-.2.7-.4,1.1-.5,1.4-.2.3-.5.8-.9,1.4l-.1.5-.3.4-1.1,2.5c-.1.3-.4.5-.8.7l.1.4-.5.1a2.9,2.9,0,0,1-2.3-.5l-.4-.3,1-1.7.7-.8.4-.7.5-.8V504h.4c.5-.1.5-.3.5-.3V503l.7-.9.8-1.8.6-.8.5-1.2.7-1.3.8-1.5.8-.7-.3-.4.4-.3c.2-.2.3-.3.4-.3a.288.288,0,0,1,.1-.2l-.3-.4.5-.7.2-.9c.1-.1.2-.3.4-.5V491l1-2.5.7-1.9a6.21,6.21,0,0,1,.8-1.2l-.1-.3.2-.7c.3-.9.4-1.2.6-1.3a2.661,2.661,0,0,1,.8-.4l-.2-.3v-.5c0-.4.1-.7.4-.8l1.3-.9.2-.5a2.016,2.016,0,0,1,1.5-.9h.5l.2.8.7-.1-.3.8.2.5.5.7.8,1.4.4,1.2.8,1.4-.4.1a1.149,1.149,0,0,1,.6.9v.2l.3.4.9,1.7.1.3-.2.3.1.2.2.3.6.6,1.2,2.2v.3c.5.5.8.9.8,1.3a.31.31,0,0,1-.1.2l.3.3,1.1,1.7c0,.1.1.1.1.2.1.1.1.2.2.4.1,0,.1.1.2.2,0,.1,0,.2.1.2.3.6.4.7.4.8a.6.6,0,0,0,.1.4,1.515,1.515,0,0,1,.7,1.1v.1l-.1.8.7.4.4.6.1.4a5.744,5.744,0,0,0,.5.4l.2.1v.5l.7.7.6,1.1.4.4a2.658,2.658,0,0,1,.6,1.4,1.42,1.42,0,0,1-.2.6l-.8.7-1,1.3h-.9Z" fill="#663815"/>
        <path id="Path_13657" data-name="Path 13657" d="M629.7,489l-.1-.5.1-1-.3-1.3v-.1l.1-.8a2.921,2.921,0,0,0,.2-.9l-.1-1.7.1-.8-.2-.4.1-.6a2.353,2.353,0,0,0-.2-.8,3.052,3.052,0,0,0-.9.5,1.7,1.7,0,0,0-.6.6c-1.1.3-1.7.7-1.7,1.2a1.087,1.087,0,0,0,.1.5.6.6,0,0,1,.6.3c.2.2.2.6.3,1.1v.8l.6.4c0,.3,0,.5-.1.6,0,.1-.2.1-.4.1l.2,5.4c.3.1.4.2.4.4v.1l-.1.9.2.6-.3.7-.1,2.9-.3.9v.3a1.791,1.791,0,0,0,.4.8l-.4,1v2.5l-.2.4-.6-.5-.4-.3-.9-1.4a3.518,3.518,0,0,1-1-.4l-.4-.3a2.3,2.3,0,0,1-.3-.9V499l-.3-.3a1.292,1.292,0,0,0-.2-.8,1.44,1.44,0,0,0-.7-.6l-.6-.5h.3l-.9-1.3a1.541,1.541,0,0,1-.7-.3c-.1,0-.2-.2-.2-.5l.3-.2-1.8-2-.2-.6-.7-.6-.8-1.2-.3-.5v-.3l-.7-.5a.9.9,0,0,0,.1-.5,1.739,1.739,0,0,0-.3-.7l-1.1-1.7a3.581,3.581,0,0,0-.6-1.1c-.1-.1-.3-.4-.7-.8l.2-.1-.4-.6-.4-.5-.9-1.8c-.2-.4-.4-.6-.7-.6-.1,0-.2,0-.2.1l-1,1.1-.3.2a1.068,1.068,0,0,1-.3.5,2.134,2.134,0,0,1-.8.5l-.5.3-.2.5.9,1.1c.2.2.3.7.3,1.6v.4a1.078,1.078,0,0,0-.2.7l.2,1.4v.5l.2.3a10.5,10.5,0,0,0-.2,1.3,1.08,1.08,0,0,0,.3.7,1.487,1.487,0,0,0-.1.6l.3.6v.6c-.3.2-.5.4-.5.7l.1.9-.2,1.1.3.9v.1l-.1,1.2.1.4-.1.5.5.5v.2c-.4.1-.6.2-.7.4l.1,2.4-.3,1.1v.1a2.544,2.544,0,0,0,.2.7l-.3.6-.1.5.5.4-.4.5-.4.6a1.166,1.166,0,0,0-.2.7v.5l.3-.1.4.1h.1c.1,0,.3-.2.6-.5l.5.1.3-.4a7.078,7.078,0,0,0,1-1.7c0-.2-.2-.3-.4-.5l-.1-.2.3-1.2v-.1l-.2-1.8V496l-.2-.4-.2-.8a1.745,1.745,0,0,0,.5-1v-.1l-.3-1.2-.1-.5.4-.2.1-.5-.1-1.8.1-.9-.1-.3.5-.2-.4-1,.4-.2a.914.914,0,0,1,.5.3l.5-.1a.367.367,0,0,1,.3.1c0,.1.1.3.1.4s-.1.3-.2.7a4.232,4.232,0,0,1,1.3,1.1,14.286,14.286,0,0,1,1.4,2l.3.2.2-.2.7.8.3,1.1,1.1,1.9.3.5a1.291,1.291,0,0,1,1.3.9l.4,1,.6.7,1.1,2a5.5,5.5,0,0,0,1.1,1.1c.5.4.7.7.7,1v.5l.3.4.9,1.6,1.2,1.5,1,1.5.1.4.9-.4.3-.5a8.284,8.284,0,0,0,1.1-2,4.012,4.012,0,0,0,.3-1.5,5.282,5.282,0,0,0-.1-1.2.953.953,0,0,1-.6-.7.864.864,0,0,1,.3-.6l.1.2.1-.5-.1-1.9.1-.8-.1-1,.1-1.9-.1-1.4.3-.9-.1-1.4.1-1.7a2.6,2.6,0,0,0-.3-.7c.3-.1.4-.3.4-.4Z" fill="#663815"/>
        <path id="Path_13658" data-name="Path 13658" d="M608.6,507.9h.3l.3-.3.1-.2.5.1.1-.2c.6-.9.8-1.3.9-1.4a.288.288,0,0,1-.2-.1l-.1-.1-.2-.5.3-1.4-.2-1.6v-6.1l-.2-.3-.2-1.2.1-.1c.4-.5.4-.7.4-.7l-.3-1.2-.1-.9.4-.2.1-.3-.1-1.7.1-.9-.2-.6.5-.2-.5-.9,1.1-.5a.713.713,0,0,1,.6.3l.4-.1a.67.67,0,0,1,.7.4,1.071,1.071,0,0,1,.2.6,1.337,1.337,0,0,1-.1.5,4.982,4.982,0,0,1,1.1,1c.4.5.9,1.2,1.3,1.8l.2-.2,1.1,1.4.3,1.1,1.3,2.1a1.5,1.5,0,0,1,1.4,1.1l.4,1,.5.6,1.2,2.1c.1.1.3.3,1,.9.6.5.9.9.9,1.4v.3l.2.3.9,1.7,1.2,1.4,1,1.5.2-.1.3-.3a14.433,14.433,0,0,0,1.1-2,2.952,2.952,0,0,0,.2-1.3,2.769,2.769,0,0,0-.1-.9,1.365,1.365,0,0,1-.6-1,1.221,1.221,0,0,1,.4-.9l.1-.1-.1-1.8.1-.8-.1-1,.1-2-.1-1.3.3-1-.1-1.3.1-1.7a1.2,1.2,0,0,1-.2-.5l-.3-.4.5-.2a.1.1,0,0,1,.1-.1l-.1-.3.1-1-.3-1.5.2-.9c0-.2.1-.5.1-.8l-.1-1.7.1-.7-.1-.5v-.8c-.2.2-.4.2-.4.3a.692.692,0,0,0-.3.4l-.1.2h-.2c-1.2.3-1.5.7-1.5.8a1.577,1.577,0,0,1,.8.5,5.212,5.212,0,0,1,.2,1.4l.1.5.6.5v.2a1.691,1.691,0,0,1-.2.9c-.1.1-.2.2-.3.2l.1,4.7c.4.2.5.4.5.7v.1l-.1.9.3.7-.4.7-.2,2.8-.2,1v.2s0,.1.3.5l.1.2-.4,1.2-.1,2.5-.4,1.1-1.6-1.3-.9-1.3a2.6,2.6,0,0,1-.7-.3l-.7-.5v-.1a2.106,2.106,0,0,1-.4-1.1v-.2l-.2-.2v-.2a3.221,3.221,0,0,0-.2-.6,3.964,3.964,0,0,0-.6-.4l-1.4-1.2h.6l-.4-.6a4.875,4.875,0,0,1-.7-.3c-.2-.1-.3-.4-.4-.7l-.1-.4.2-.1-1.6-1.8-.2-.5-.5-.5-1.3-1.9v-.2l-.9-.5.2-.4a.768.768,0,0,0,.1-.3s0-.1-.2-.4l-1.1-1.8a4.689,4.689,0,0,0-.6-1c0-.1-.1-.2-.6-.7l-.4-.3.2-.3-.5-.7-.9-1.9q-.15-.3-.3-.3l-1,1.1-.2.1a1.072,1.072,0,0,1-.2.6c-.1,0-.3.2-.9.5l-.4.3.7.9c.2.2.4.6.4,1.9l-.1.7a1.093,1.093,0,0,1-.2.4l.3,1.8.2.3v.3a3.858,3.858,0,0,0-.2,1.1c0,.1.1.2.1.3l.3.2-.1.3a.756.756,0,0,0-.1.4l.3.7v.8l-.2.2q-.3.15-.3.3v.8l-.1,1.2.3,1-.1,1.2v.7l.4.5v.8l-.3.1a.407.407,0,0,0-.3.1l.1,2.2-.3,1.2a1.337,1.337,0,0,0,.1.5l.1.2-.4.9.6.5-.6.9-.4.6a.585.585,0,0,0-.1.4Zm-1.1,1.2.1-1.2a1.493,1.493,0,0,1,.3-1l.5-.7-.3-.3.2-.9.2-.4a2.543,2.543,0,0,1-.2-.7.367.367,0,0,1,.1-.3l.2-1-.1-2.4.1-.1c0-.1.2-.3.4-.4l-.3-.4.1-.6-.1-.4.1-1.2-.3-.9.2-1.3-.1-.7a1.533,1.533,0,0,1,.5-1.1v-.2l-.3-.7a1.088,1.088,0,0,1,.1-.5,1.135,1.135,0,0,1-.3-.8,7.375,7.375,0,0,1,.2-1.2l-.2-.2v-.7l-.2-1.4a1.512,1.512,0,0,1,.2-.8v-.3a6.048,6.048,0,0,0-.1-1.3l-1.1-1.3.3-.9.7-.4c.5-.3.7-.4.7-.4a.773.773,0,0,1,.1-.3v-.2l.5-.3.9-1c.5-.5,1.3-.3,1.8.6l.9,1.8.3.4.6,1h-.1c.3.3.4.5.4.6a3.581,3.581,0,0,1,.6,1.1l1.1,1.7a1.626,1.626,0,0,1,.4.9v.3l.7.4-.1.5,1,1.5.7.6.2.7,2.2,2.3-.5.3c.1,0,.2.1.4.1h.2l1.3,2a1.441,1.441,0,0,1,.7.6c.2.2.2.5.3.9l.3.3v.5a1.548,1.548,0,0,0,.2.6l.3.2c.9.4,1,.5,1.1.7l.8,1.2.4.2V500l.3-.8a1.6,1.6,0,0,1-.3-.8.75.75,0,0,1,.1-.5l.2-.8.2-3,.2-.5-.2-.5.2-1c-.1,0-.1-.1-.2-.1l-.3-.1-.2-6.1h.5v-.1l-.5-.4-.1-.9c-.1-.7-.1-.9-.2-1h-.6l-.1-.4a1.762,1.762,0,0,1-.1-.6c0-1,1.3-1.5,1.9-1.6a1.7,1.7,0,0,1,.6-.6,3.861,3.861,0,0,1,1-.5l.4-.2.2.3a2.279,2.279,0,0,1,.3,1.1l-.1.5.2.5-.1.8v1.7a3.082,3.082,0,0,1-.1,1l-.1.8.3,1.3-.1,1,.1.5v.1c0,.2-.2.3-.3.5.1.3.2.4.2.5l-.1,1.7v1.4l-.2,1,.1,1.2-.1,2,.1,1.1-.1.8.1,1.8-.1,1.3h.1v.2a6.892,6.892,0,0,1,.2,1.3,5.547,5.547,0,0,1-.3,1.7,12.758,12.758,0,0,1-1.2,2.1l-.5.6-1.3.7-.4-.9-.9-1.4-1.2-1.5-.9-1.7-.4-.5v-.7s0-.2-.5-.6a6.932,6.932,0,0,1-1.2-1.1l-1.2-2-.6-.8-.4-1.1a.792.792,0,0,0-.8-.5H618l-.4-.7-1.1-2-.4-1-.2-.3h-.1l-.8-.4v-.2a13.311,13.311,0,0,0-1.4-1.9,3.46,3.46,0,0,0-1.1-1l-.3-.1.1-.4a3.547,3.547,0,0,1,.1-.6l-.5.2.3.5-.6.2-.1,1.1.1,1.7-.2.8-.3.2.1.1.3,1.4a2.5,2.5,0,0,1-.5,1.1l.2.6.1.5.1,6.1.2,1.7a.367.367,0,0,1-.1.3l-.2,1a1.039,1.039,0,0,1,.4.8c0,.2,0,.6-1,2l-.5.6-.5-.1c-.4.4-.6.5-.8.5l-.4-.1Z" fill="#663815"/>
        <path id="Path_13659" data-name="Path 13659" d="M661.6,493.4a9.666,9.666,0,0,1-.4,2.3,5.716,5.716,0,0,1-1.1,1.6c.4.1.6.2.6.4s-.1.3-.2.3a5.385,5.385,0,0,1-.8.1l-.2.5-.9,1-.4.7-.9.5-.2.7-.3.3-.5.2-1.1,1.1-1.5.7-.5.3-.6.3-1.6.6-2.3.9h-.4l-3.1.9-1-.1-2.7.1a13.5,13.5,0,0,1-2-.3c.2-.4.4-.7.6-.7l.4.1a1.692,1.692,0,0,0,.2-.5.6.6,0,0,0-.1-.4,4.516,4.516,0,0,1-.3-1.3v-3l-.7-.4-.1-.7c.4-.2.7-.3.7-.4.1-.1.1-.3.1-.6v-1.9l-.1-.1.2-1.1-.2-.5.2-3.6-.5-1v-.2a.51.51,0,0,1,.4-.5c0-.2,0-.3-.1-.4a1.627,1.627,0,0,0-.6-.3l-.3-.3.1-.5h.2a.756.756,0,0,0,.4-.1h.2v-.6a2.5,2.5,0,0,1-.3-1.3h.1l.3.2V486a3.633,3.633,0,0,0-.3-1.1l-.1-.5a4.436,4.436,0,0,0,.2-1.3l.1-.6.5.2.2-.4.2-.1.3.1,1.4-.1,3,.3,1.2.3.5.3a1.351,1.351,0,0,0,1.7,0l.4.3q.15.3.3.3c.1.1.4.1.7.2a2.107,2.107,0,0,1,1.1.4.914.914,0,0,1,.5-.3,3.554,3.554,0,0,0,.7.1l.1.5.4.1.6.2.9.2,1.9,1a2.219,2.219,0,0,0,.9.1h.4a5.22,5.22,0,0,0,1.2,1.3l1,.8.4.4v.2l.4.6a1.852,1.852,0,0,1,.2.7v.2h.2a3.54,3.54,0,0,0,.1.6,2.184,2.184,0,0,0,.5.3,8.085,8.085,0,0,0-.5,2.1Zm2.5,2.7h-.2l-.1-.1a1.628,1.628,0,0,1,.3-.6l.8-.2.4-.4a2.187,2.187,0,0,0,.3-.5c.1-.1.1-.4.1-.7v-1l.1-.9c0-.1,0-.3-.1-.3l-.5-.9-.1-.1c0-.2.2-.3.4-.5-.1-.5-.2-.8-.4-.9l-.4-.3-.3-.4V488l.3-.3a8.548,8.548,0,0,0-1.9-1.9,4.723,4.723,0,0,0-1.6-.7h-.3c-.4-.5-.7-.7-.9-.7h-1V484l-.5-.4-.7-.2-.5-.1-.6.1-.7.3h-.1l.1-.2h-.1l.2-.3-.3-.2.1-.5-.4-.1-1.2-.4-1.6-.3-1.4-.4L649,481l-.6-.2-1.6-.1-1.4-.4-.6.1h-.1l-.8-.1h-1.4l-.4-.2-.5.1-.7-.2h-1.4a4.253,4.253,0,0,0-1.1.2l-.9.4h-1.6l-.7.3v.5l.5.3a3.714,3.714,0,0,0,.9.2v.7l.2,1.2v.2l-.6,1,.6.6v2l.3.6-.1.5.2,1.6-.1,1.1.1.4h.5v1.1a.723.723,0,0,0-.4.6v1.2c.3.2.5.4.5.6a4.328,4.328,0,0,0-.1.5l-.3.6v1.5l-.1,1.1.3.6v.6a1.688,1.688,0,0,0,.2.5l-.4.5v.6l-.1,1.2a1.6,1.6,0,0,0,.3.8l-.3.1v.7l-.3.9v.6c0,.1-.1.3-.4.5l-.3.4h-.2a1.993,1.993,0,0,0-.8.2l-.5.1-.3.3v.2c0,.1.2.1.5.1,0,0,.7.2,2,.5a2.768,2.768,0,0,0,.9.1,2.3,2.3,0,0,0,1.4-.4v-.5l.8.2a1.222,1.222,0,0,0,.9.3l.2.1c.3,0,.5-.1.8-.1a5.745,5.745,0,0,0,.7-.4l1.1.5.4-.1,1.7-.2.8-.1,1.2-.4,1-.3.6-.4a.864.864,0,0,0,.6.3,3.941,3.941,0,0,0,1.4-.5l1.5-.9,2.3-1.2.5-.2a.764.764,0,0,0,.2-.5l.4-.2,1.5-.5.9-.6,1.4-1.5.7-.5.8-1.2,1.6-1.1.4-.6.4-.6.1-.4.2-.4-.4-.3Z" fill="#663815"/>
        <path id="Path_13660" data-name="Path 13660" d="M640.9,506.3h.6l2.7-.1,1,.1,3-.8.5-.1,4.3-1.7.5-.4,1.4-.6,1.2-1.1.6-.3.3-.9.8-.5.4-.6.9-1,.3-.7h-.2l.6-.7a4.194,4.194,0,0,0,.9-1.4,14.948,14.948,0,0,0,.5-2.2,8.415,8.415,0,0,1,.3-1.8c-.1,0-.2-.2-.3-.3s-.1-.2-.2-.4l-.2-.1v-.5a.6.6,0,0,0-.1-.4l-.5-.8v-.1l-.2-.2-1-.8a6.937,6.937,0,0,1-1.1-1.2h-.2a2.507,2.507,0,0,1-1-.1l-2-1-.8-.2-.7-.3-.6-.1-.1-.4a.367.367,0,0,0-.3-.1l-.2.2-.3.2-.2-.2a3.685,3.685,0,0,0-.9-.4,7.755,7.755,0,0,1-.9-.1,2.253,2.253,0,0,1-.5-.5h-.1a1.654,1.654,0,0,1-1.8-.2l-.5-.3-1.1-.2-3-.4-1.4.2-.1-.1-.2.7-.4-.2a5.064,5.064,0,0,1-.2,1.3l.1.2a4.516,4.516,0,0,1,.3,1.3v1.2l-.2-.1v.1l.1.1v1.4l-.7-.1h-.1a1.628,1.628,0,0,1,.6.3,1.33,1.33,0,0,1,.3.8v.3l-.3.1a.1.1,0,0,1-.1.1l.4,1.1-.1,3.7.2.5-.2.9.1.2-.1.9.1,1.1c0,.4,0,.7-.2.9a2.734,2.734,0,0,1-.5.4v.1l.7.4v.8l-.1,2.5a10.247,10.247,0,0,0,.3,1.1,1.422,1.422,0,0,1,.2.6,1.329,1.329,0,0,1-.3.7Zm1.9.9,1,.5.4-.1,1.7-.1.7-.2,2.2-.7.7-.4.2.1c.3.2.4.2.4.2a2.383,2.383,0,0,0,1.2-.4l1.4-.9,2.8-1.4v-.3l-.2.1-1.4.6-.5.4-.7.2-3.8,1.5-.5.1-3.1.9-1.1-.1Zm-7.1.4a7.82,7.82,0,0,0,1.4.3,2.007,2.007,0,0,0,1.7-.1v-.7l1.5.2.1.1a1.421,1.421,0,0,0,.6.2h.2l.1.1a.749.749,0,0,0,.5-.1c.2,0,.4-.2.7-.3l.1-.1-1.1.1a14.183,14.183,0,0,1-2.1-.3l-.5-.1.2-.5c.2-.9.7-1.1,1-1.1l.1.1a.367.367,0,0,0-.1-.3,5.018,5.018,0,0,1-.3-1.4V501l-.6-.4-.2-1.2.3-.2a2.23,2.23,0,0,0,.5-.3v-2l-.1-.2.2-1.2-.2-.4.2-3.7-.4-.8a.756.756,0,0,1-.1-.4.6.6,0,0,1,.3-.6.367.367,0,0,0-.3-.1l-.1-.1-.5-.6.1-1.1h.7l.1-.1a2.9,2.9,0,0,1-.3-1.4l-.1-.5h.5c-.1-.1-.1-.4-.3-.7l-.1-.6.1-.1a4.12,4.12,0,0,0,.1-1.2l.2-1.3.6.3.1-.2.6-.3.4.2,1.3-.1,3,.4,1.5.3.5.3a1.422,1.422,0,0,0,.6.2,3.928,3.928,0,0,0,.6-.2l.3-.2.6.6.2.2a2.142,2.142,0,0,1,.6.1,2.65,2.65,0,0,1,1,.3,1.087,1.087,0,0,1,.5-.1,3.218,3.218,0,0,1,.8.1h.3l.1.5h.1l.7.3.9.2,2,1a1.452,1.452,0,0,0,.6.1h.7l.1.2c.5.6.9,1,1.1,1.2l1.7,1.3-.1.3.3.5a1.08,1.08,0,0,1,.3.7l.1.1.1.3v.3a1.236,1.236,0,0,0,.3.2l.5.1-.2.5a7.213,7.213,0,0,0-.5,2,11.046,11.046,0,0,1-.5,2.4,7.462,7.462,0,0,1-.7,1.2.864.864,0,0,1,.3.6.661.661,0,0,1-.6.7c0,.1-.2.1-.6.2l-.1.3-.9,1-.5.8-.8.4-.3.8-.4.3-.4.2-.8.8.4-.1,1.5-.6a2.176,2.176,0,0,0,.8-.5l1.3-1.4.7-.5.9-1.3,1.5-1,.7-1.1.1-.2-.4-.3.1-.3v-.1l-.9-1.5,1.2.8a.1.1,0,0,0,.1-.1h.2l.7-.2.2-.3c.1-.1.2-.3.3-.4v-1.5l.2-1-.6-.8c-.1-.1-.1-.2-.1-.4a.745.745,0,0,1,.3-.7,1.237,1.237,0,0,0-.2-.3l-.5-.4-.3-.6-.1-.6.2-.1a11.369,11.369,0,0,0-1.6-1.5,3.466,3.466,0,0,0-1.3-.6h-.5l-.2-.2c-.4-.5-.5-.5-.5-.5h-.8l-.6-.1-.1-.6-.2-.1-1-.3-2.6.8.6-1,.2-.3-.2-.2.1-.2-1.3-.5-1.5-.2-1.4-.5-2.4-.2-.5-.2-1.6-.1-1.3-.4-.7.1-.8-.1-.8-.1-.7.1-.4-.2-.4.2-.8-.3h-1.3a1.486,1.486,0,0,0-.9.2l-1,.4L636,481l-.2.1.1.1a1.078,1.078,0,0,0,.7.2l.5.1.2,2.2-.1.6-.4.6.5.5v2.1l.4.7-.2.5.2,1.5-.1,1.1h.6l-.1,1.9-.1.1a1.236,1.236,0,0,0-.3.2l.1.9a1.382,1.382,0,0,1,.5.9,1.42,1.42,0,0,1-.2.6l-.3.6v2.4l.3.6v.7s0,.1.2.3l.1.3-.5.6-.1.4-.1,1.2c0,.1.1.2.3.5l.3.4-.5.3v.4l-.3,1v.5a2.058,2.058,0,0,1-.5.9l-.6.6-.3-.1a.756.756,0,0,0-.4.1Zm2.2,1.4a4.255,4.255,0,0,1-1.1-.2c-1.5-.3-1.8-.4-1.9-.4-.8,0-.9-.5-.9-.6v-.2l.1-.3.5-.4.6-.2a2.678,2.678,0,0,1,.9-.2l.2-.2c.2-.2.2-.3.2-.3v-.6l.3-1v-.7l.1-.1a1.269,1.269,0,0,1-.1-.6l.1-2,.4-.3c-.2-.3-.2-.4-.2-.5v-.5l-.3-.6.1-2.9.3-.6a.773.773,0,0,0,.1-.3s0-.1-.3-.3l-.2-.1v-1.4a.894.894,0,0,1,.4-.8v-.4h-.4l-.2-.9.1-1.2-.2-1.6.1-.4-.2-.6-.1-1.8-.6-.7.6-1.2v-.2l-.1-1.4a1.445,1.445,0,0,1-.7-.2l-.8-.3v-1.3l1.1-.4h1.6l.8-.4a6.882,6.882,0,0,1,1.3-.2h1.4l.7.2.5-.1.5.2H644l.7.1.7-.1,1.5.5h1.7l.5.3,2.2.2,1.5.4,1.6.3,2.1.7-.2.6.2.2.9-.2,1.4.4.6.5.1.2h.5c.4,0,.7.2,1.1.7h.1a5.065,5.065,0,0,1,1.9.8,9.469,9.469,0,0,1,2,2l.2.4-.4.4.2.2.3.3c.3.1.4.5.6,1.1l.1.4-.4.1v.1l.5.7a3.541,3.541,0,0,1,.1.6l-.2,1,.1.9a2.22,2.22,0,0,1-.1.9,2.652,2.652,0,0,1-.5.6l-.4.6-.5.1.4.2-.3.4.1.1h-.2v.1l-.2.6-1,1.3-1.4,1-.9,1.3-.7.5-1.3,1.4a4.727,4.727,0,0,1-1.2.7l-1.6.6a.864.864,0,0,1-.3.6l-.1.1-.5.2-2.3,1.1-1.5.9a3.193,3.193,0,0,1-1.6.6,1.42,1.42,0,0,1-.6-.2l-.4.2-2.2.7-.9.2-2.3.3-1-.4a1.422,1.422,0,0,1-.6.2,2,2,0,0,1-.9.2H641l-.2-.2a1.222,1.222,0,0,1-.9-.3h-.1v.2l-.2.2a5.254,5.254,0,0,1-1.7.4Z" fill="#663815"/>
        <path id="Path_13661" data-name="Path 13661" d="M686.6,496.6c-.1.1-.3.1-.7.1a7.75,7.75,0,0,1-1.9.2h-.5c-.2.3-.3.4-.4.4l-.2-.1.1-.2-.6.1-1.4.1c-.1,0-.2.1-.4.2l-.7-.2-1.6.1-2.7-.2-.3.1-.1.1-.5-.2-.6.2-.6-.2-.4-.1.2-.5c.1-.2.1-.4.2-.5a.494.494,0,0,0,.3-.1l-.3-.6a1.549,1.549,0,0,0,.8-.8,5.3,5.3,0,0,0,.4-1.6v-.5c.3,0,.4,0,.5-.1.1,0,.2-.2.3-.5l.1-.4c.2-.2.3-.4.4-.5.1-.2.2-.5.4-.9l.9-2.1.1-.5a2.362,2.362,0,0,1,.6-.9l.6-.6a3.628,3.628,0,0,1,.3-1.1h.1l.3-.8.3-.2a11.147,11.147,0,0,1,1,.9l1.4,2.9,1,.5.1.6-.2.4,1.3,2.5h.3l.9,1.9.8.2.1.4a4.459,4.459,0,0,0,.3,1.6h.5l.1.2-.1.1.1.2a2.091,2.091,0,0,1-.6.4Zm8.5,9-.3-.4-.7-1.2-.7-.7v-.4c-.4-.3-.6-.5-.6-.7l-.2-.4-.2-.3-.9-.5a.349.349,0,0,0-.1-.2l.1-.9v-.1a.938.938,0,0,0-.6-.8c0-.2-.1-.4-.1-.6a2.217,2.217,0,0,1-.4-.7.31.31,0,0,0-.1-.2.349.349,0,0,1-.1-.2.758.758,0,0,1-.2-.4c-.1,0-.1-.1-.2-.1,0-.1,0-.2-.1-.2l-.9-1.6-.4-.4v-.3a2.036,2.036,0,0,0-.7-1.1v-.5l-.4-.6-.7-1.4-.6-.5-.3-.4-.1-.4.2-.4v-.2l-.4-.5-.5-.9-.5-.5.1-.4c0-.2-.3-.4-.8-.7-.1-.2-.2-.3-.2-.4l.6-.2-.6-.9-.4-1.2-.7-1.3-.6-.8-.3-.7.1-.2-.3.1-.2-.9a1.426,1.426,0,0,0-1.2.6l-.2.6-1.5,1a.52.52,0,0,0-.2.4.438.438,0,0,1,.1.3l.2.6-.1.3a2.188,2.188,0,0,0-.9.3,3.829,3.829,0,0,0-.5,1.1l-.1.5.2.5a3.053,3.053,0,0,0-.9,1.3l-.7,1.9-1,2.4v.2c-.2.2-.4.4-.4.5l-.4.9-.2.5.2.3a1.628,1.628,0,0,1-.3.6c-.1,0-.2.2-.5.4a.757.757,0,0,1,.2.4.31.31,0,0,1-.1.2l-.8.8-.8,1.3-.7,1.3-.6,1.3-.5.7-.9,1.9-.6.7v.6c0,.4-.3.6-.9.7v.2l-.2.4-.3.4-.5.8-.6.7-.8,1.4a2.665,2.665,0,0,0,1.3.5c.2,0,.4-.1.7-.1l-.1-.3c.5-.2.8-.3,1-.6l1.1-2.5.3-.5v-.4a14.671,14.671,0,0,0,.9-1.5,5.708,5.708,0,0,0,.6-1.5h.3l.3-.8c.4-.9.7-1.3,1.1-1.4l.8-.1.7-.2,1.8.2h.1a1.05,1.05,0,0,0,.9-.5h.6l.7.3.9-.3,1.8.2,2.9-.4h1.3l2.1.4h.1c.4,0,.6-.3.7-.9l.8.3a5.868,5.868,0,0,0,.8,2l.2.2a1.379,1.379,0,0,0,.4.3v.3a2.918,2.918,0,0,0,.2.9l1,1.8.1.7.7,1.4.2.5h.3a4.175,4.175,0,0,0,.4,1v.8l.2.4.1.5.4-.1h.6l.9-1.3.8-.7c.1,0,.1-.1.1-.2,0-.3-.2-.6-.6-1.1Z" fill="#663815"/>
        <path id="Path_13662" data-name="Path 13662" d="M673.3,494.6a.288.288,0,0,1,.1.2,2.65,2.65,0,0,0,.5-.6,3.255,3.255,0,0,0,.3-1.3l.1-.9-.5,1.2.3.3-.1.3a2.1,2.1,0,0,0-.4.6c-.1,0-.1.1-.3.2Zm6.7,2.1.5.2c.2-.1.3-.2.4-.2l2-.2.9-.1-.1.1.3-.1c.9,0,1.5-.1,1.9-.1a2.8,2.8,0,0,1,.5-.1l-.2-.2a5.343,5.343,0,0,1-.4-1.8v-.1l-.7-.2-.9-1.8h-.3l-1.5-3,.2-.5v-.2l-.9-.4-1.6-3.1-.4-.4-.3.7h-.1a2.192,2.192,0,0,1-.3.8,1.68,1.68,0,0,1-.7.8,1.27,1.27,0,0,0-.4.7l-.1.5-.9,2.2c-.2.4-.4.7-.5.9a2.089,2.089,0,0,1-.4.6l-.1.3a4.877,4.877,0,0,1-.3.7c-.2.1-.3.1-.4.2v.1a6.073,6.073,0,0,1-.4,1.7,5.01,5.01,0,0,1-.7.8l.5.8-.7.1h-.1a.288.288,0,0,1-.1.2l.5.2.6-.2.2.1.6-.1,2.7.2ZM693.1,508l.2.4h.4l.7-1,.8-.8c0-.1-.1-.3-.4-.7l-.4-.4-.6-1.2-.9-.8v-.4a3.188,3.188,0,0,1-.6-.7l-.1-.3-.2-.3-.8-.4-.1-.1a1.087,1.087,0,0,1-.1-.5l.1-1c0-.1-.1-.2-.5-.4l-.2-.1V499a.6.6,0,0,0-.1-.4,1.546,1.546,0,0,0-.3-.6l-.1-.1c0-.2-.1-.2-.1-.3a2.19,2.19,0,0,0-.3-.5l.3-.3-.3.2-.2-.1-.9-1.6-.6-.6.1-.2a.349.349,0,0,1,.1-.2,3.525,3.525,0,0,0-.6-.7l-.2-.1v-.6l-.3-.6-.7-1.3-.5-.5-.5-.6-.1-.5.2-.4-.3-.4-.5-.9-.6-.6.1-.6a2.227,2.227,0,0,0-.5-.3l-.1-.1a1.328,1.328,0,0,1-.3-.7V485l.3-.1-.3-.4-.4-1.2L682,482l-.6-.7-.3-.6H681l-.3-.8c-.1,0-.3.2-.4.3l-.2.7-1.6,1a.31.31,0,0,0,.1.2l.2.7-.2.7-.3.1c-.6.1-.7.2-.7.2a7.216,7.216,0,0,0-.3.8l-.1.4.2.6-.2.2a6.345,6.345,0,0,0-.8,1.1l-.7,2-.9,2.2.1.3-.2.2-.4.4h.4c.1,0,.2,0,.2-.1a.349.349,0,0,0,.1-.2l.3-.7.3-.3c.1-.2.2-.5.4-.9l.9-2.1v-.3a2.577,2.577,0,0,1,.8-1.3c.3-.3.4-.4.4-.5a3.021,3.021,0,0,0,.3-.9l.1-.3.2-.1.2-.6.7-.5.2.2c.8.6,1.1.8,1.2,1l1.4,2.9,1,.5.2.9-.2.4,1.1,2h.3l1,2,.9.2.1.8a10.425,10.425,0,0,0,.1,1.1h.5l.4.8.2.2-.5.3a1.156,1.156,0,0,1-.7.5,1.549,1.549,0,0,1-.8.2c-.4.1-1.1.1-1.9.2h-.4a.822.822,0,0,1-.6.4l-.2-.1-.6-.2-1.2.1a.349.349,0,0,0-.1.2l-.3.2-.8-.4-1.6.1-2.7-.1h-.1l-.1.3-.7-.3-.6.2-1.6-.4.3-1a1.542,1.542,0,0,1,.3-.7l-.1-.2-.7.7-.7,1.2-1.2,2.6-.6.7-.9,2-.5.6v.4c0,.3-.1.8-.9,1.1l-.7.9-.3.7-.7.8-.5.9a1.232,1.232,0,0,0,.7.2V508l.4-.1c.5-.1.6-.3.6-.3l1.2-2.5.2-.4v-.5l.1-.1a15.144,15.144,0,0,0,.9-1.4c.1-.3.3-.7.6-1.4l.1-.3.2-.1.3-.5c.4-1,.8-1.5,1.3-1.7h.2l.8-.1.7-.2,1.8.2h.1c.2,0,.3,0,.5-.3l.2-.3.9.2.6.2.9-.2,1.8.1,2.8-.4h1.4l2.2.4c.1,0,.2-.1.3-.5l.1-.6,1.5.6v.3a13.382,13.382,0,0,0,.8,1.9.31.31,0,0,1,.2.1c0,.1.1.1.2.2l.3.1v.6a1.482,1.482,0,0,0,.1.7l1,1.9.2.7.7,1.5h.5v.4c.1.3.1.6.3.8l.1.2v.8Zm-.7,1.6v-.9l-.3-.5v-.8l-.3-.6h-.2l-.3-.8-.7-1.4-.2-.7-1-1.8a4.25,4.25,0,0,1-.2-1.1l-.2-.2-.3-.3c-.4-.8-.7-1.5-.9-2a1.1,1.1,0,0,1-1,.8h-.2l-2.1-.4h-.7l-.6-.1-2.8.4-1.7-.1-1,.3-1.1-.3a1.392,1.392,0,0,1-1.1.5h-.1l-1.8-.2-.5.2h-.9a2.349,2.349,0,0,0-.7,1.1l-.5,1.1h-.2a4.78,4.78,0,0,1-.6,1.4c-.2.3-.4.8-.8,1.4l-.1.5-.3.4-1.1,2.5c-.1.3-.4.5-.8.7l.1.4-.5.1a2.9,2.9,0,0,1-2.3-.5l-.4-.3,1-1.7.7-.8.3-.7.6-.8V504h.4c.4-.1.4-.3.4-.3V503l.7-.9.9-1.8.5-.8,1.2-2.5.9-1.5.8-.7h-.1l-.3-.4.4-.3a1.724,1.724,0,0,1,.4-.3l.2-.2-.3-.4.4-.7.3-.9c.1-.1.2-.3.4-.5V491l1.7-4.4a3.548,3.548,0,0,1,.8-1.2l-.1-.3.2-.7a2.8,2.8,0,0,1,.5-1.3,5.56,5.56,0,0,1,.8-.4l-.1-.3v-.5a.781.781,0,0,1,.4-.8l1.3-.9.2-.5a2.016,2.016,0,0,1,1.5-.9h.4l.3.8.7-.1-.4.8.3.5.5.7.7,1.4.5,1.2.8,1.4-.4.1a1.149,1.149,0,0,1,.6.9l-.1.2.4.4.9,1.7v.3l-.1.3.1.2.2.3.6.6,1.2,2.2v.3a1.877,1.877,0,0,1,.7,1.3v.2l.2.2,1.3,2.1a1.241,1.241,0,0,1,.2.3.349.349,0,0,1,.1.2c.1.1.1.2.2.2a3.855,3.855,0,0,1,.3.8.6.6,0,0,1,.1.4,1.269,1.269,0,0,1,.7,1.1v.1l-.1.8.8.4.4.6.1.4a5.744,5.744,0,0,0,.5.4l.2.1v.5l.7.7.6,1.1.3.4a2.27,2.27,0,0,1,.7,1.4.864.864,0,0,1-.3.6l-.8.7-.9,1.3h-.9Z" fill="#663815"/>
      </g>
    </g>
  </g>
</svg>
